<?xml version="1.0" encoding="utf-8"?>
<!-- Generator: Adobe Illustrator 27.5.0, SVG Export Plug-In . SVG Version: 6.00 Build 0)  -->
<svg version="1.1" id="Layer_1" xmlns="http://www.w3.org/2000/svg" xmlns:xlink="http://www.w3.org/1999/xlink" x="0px" y="0px"
	 viewBox="0 0 418.438 512.866" style="enable-background:new 0 0 418.438 512.866;" xml:space="preserve">
<g>
	<g>
		<g>
			<path style="fill:#EFB291;" d="M119.595,365.216c1.03,2.026,2.334,3.941,3.646,5.792c5.552,7.831,12.548,14.591,19.96,20.647
				c13.563,11.079,29.865,18.44,47.045,21.713c8.572,1.633,17.471,2.416,26.194,1.946c8.405-0.452,16.722-2.203,24.63-5.074
				c7.994-2.902,15.566-6.954,22.457-11.935c6.925-5.005,12.839-10.957,18.368-17.439c5.845-6.852,11.44-13.962,16.16-21.645
				c0.296-0.481,0.588-0.965,0.876-1.451c-11.494-5.928-39.973-15.3-46.006-28.087c-6.059-12.844-0.989-81.48-0.989-81.48h-83.435
				c0,0,5.616,74.083-3.688,83.387c-11.256,11.256-38.666,23.534-47.632,28.07C117.911,361.544,118.679,363.415,119.595,365.216z"/>
			<path style="opacity:0.64;fill:#EFB291;" d="M170.03,302.511c1.969,1.673,3.855,3.45,5.848,5.093
				c3.39,2.796,7.274,4.903,11.259,6.728c7.935,3.633,16.538,5.683,25.27,5.823c7.241,0.116,14.498-0.905,21.462-2.874
				c5.676-1.605,11.182-3.867,16.301-6.806c-1.005-24.749,1.767-62.272,1.767-62.272h-83.435
				C168.503,248.203,170.782,278.279,170.03,302.511z"/>
			<path style="opacity:0.64;fill:#EFB291;" d="M258.547,336.619c-0.248,2.563-0.573,5.117-1.002,7.657
				c-1.03,6.089-2.649,12.115-5.24,17.735c-2.497,5.417-5.949,10.361-10.441,14.309c-4.255,3.741-9.228,6.597-14.518,8.602
				c-5.386,2.041-11.098,3.197-16.843,3.552c-5.782,0.357-11.625-0.105-17.273-1.399c-5.552-1.272-11.017-3.354-15.845-6.4
				c-5.05-3.186-9.149-7.641-11.682-13.065c-3.07-6.574-4.039-13.86-4.832-20.996c-0.373-3.352-0.134-6.675-0.001-10.034
				c0.02-0.509,0.038-1.021,0.05-1.535c-12.74,10.218-35.681,20.542-43.736,24.618c0.728,1.884,1.496,3.755,2.412,5.556
				c1.03,2.026,2.334,3.941,3.646,5.792c5.552,7.831,12.547,14.591,19.96,20.647c13.563,11.079,29.865,18.44,47.045,21.713
				c8.572,1.633,17.471,2.416,26.194,1.946c8.405-0.452,16.722-2.203,24.63-5.074c7.994-2.902,15.566-6.954,22.457-11.935
				c6.925-5.005,12.839-10.957,18.368-17.439c5.845-6.852,11.44-13.962,16.16-21.645c0.296-0.481,0.588-0.965,0.876-1.451
				C289.628,352.972,269.195,345.916,258.547,336.619z"/>
			<path style="fill:#2E2F31;" d="M412.161,505.173c-3.101-15.249-15.953-97.977-25.469-110.891
				c-10.113-13.724-89.705-41.301-121.743-56.604c0.359,1.128,0.673,2.271,0.934,3.426c1.143,5.066,1.388,10.319,0.922,15.485
				c-0.469,5.208-1.643,10.355-3.471,15.254c-1.756,4.708-4.11,9.221-7.145,13.236c-2.616,3.461-5.776,6.444-9.314,8.949
				c-3.68,2.606-7.72,4.681-11.919,6.31c-4.378,1.698-8.944,2.907-13.576,3.67c-2.701,0.445-5.427,0.737-8.16,0.881v-0.191
				c-1.437,0.131-2.877,0.223-4.318,0.266c-0.281,0.008-0.563,0.01-0.844,0.015c-0.281-0.005-0.563-0.006-0.844-0.015
				c-1.441-0.043-2.881-0.134-4.318-0.266v0.191c-2.734-0.144-5.46-0.436-8.16-0.881c-4.632-0.763-9.198-1.971-13.576-3.67
				c-4.2-1.629-8.239-3.704-11.919-6.31c-3.538-2.505-6.698-5.488-9.314-8.949c-3.035-4.014-5.388-8.527-7.145-13.236
				c-1.827-4.899-3.001-10.046-3.471-15.254c-0.465-5.165-0.221-10.419,0.922-15.485c0.261-1.155,0.575-2.298,0.934-3.426
				C119.129,352.98,45.243,378.099,35.13,391.823c-8.858,12.022-24.033,89.922-28.854,113.35H412.161z"/>
			<path style="fill:#4D4D4F;" d="M257.317,332.616c0.583,7.819,1.159,32.208-12.372,47.477c-3.732,4.211-8.355,7.472-13.74,9.692
				c-6.38,2.63-14.04,3.9-22.762,3.781c-16.591-0.23-29.076-5.204-37.108-14.781c-12.35-14.726-11.845-35.333-11.114-44.012
				c-0.007,0.003,0.148-0.94,0.141-0.937c-5.79,2.275-11.577,4.536-17.237,7.12c-0.036,13.289,2.158,33.062,15.158,48.628
				c11.341,13.58,28.138,20.619,49.926,20.921c0.465,0.006,0.928,0.01,1.388,0.01c20.633,0,36.811-6.478,48.098-19.266
				c13.922-15.773,16.615-36.046,16.77-49.543C271.466,339.363,259.78,334.337,257.317,332.616z"/>
		</g>
		<path style="fill:#C4C6C8;" d="M92.543,505.173c-0.014-0.405-0.03-0.812-0.043-1.216c-0.095-2.829-0.16-5.659-0.219-8.489
			c-0.114-5.518-0.372-11.046-0.162-16.563c0.202-5.317,0.634-10.623,0.821-15.94c0.16-4.542,0.157-9.116-0.378-13.634
			c-0.649,4.593-1.417,9.169-2.131,13.752c-1.484,9.526-2.507,19.139-2.598,28.787c-0.042,4.438,0.089,8.872,0.287,13.304H92.543z"
			/>
		<path style="fill:#C4C6C8;" d="M329.86,505.173c0.014-0.405,0.03-0.812,0.043-1.216c0.095-2.829,0.16-5.659,0.219-8.489
			c0.114-5.518,0.372-11.046,0.162-16.563c-0.202-5.317-0.634-10.623-0.821-15.94c-0.16-4.542-0.156-9.116,0.378-13.634
			c0.649,4.593,1.417,9.169,2.131,13.752c1.484,9.526,2.508,19.139,2.598,28.787c0.042,4.438-0.089,8.872-0.287,13.304H329.86z"/>
	</g>
	<g>
		<g>
			<g>
				<path style="fill:#EFB291;" d="M326.298,198.966c1.624-6.494-1.472-13.369-5.224-18.536c-3.488-4.804-8.428-9.763-14.73-9.975
					c-5.798-0.195-11.056,3.302-15.117,7.114c-1.599,1.501-3.098,3.121-4.494,4.828c-2.62,8.992-6.052,28.502-6.917,32.021
					c-1.018,4.142-2.007,8.305-2.6,12.537c-0.578,4.121-0.865,8.499-0.003,12.604c1.171,5.57,7.45,5.903,11.907,5.114
					c2.379-0.421,4.768-1.16,6.934-2.264c2.926-1.49,4.962-4.068,6.506-6.965c1.592-2.989,2.654-6.224,4.132-9.266
					c1.745-3.592,4.27-6.683,6.913-9.61c3.465-3.838,7.329-7.507,10.258-11.829C324.889,202.898,325.793,200.987,326.298,198.966z"
					/>
				<path style="opacity:0.64;fill:#EB936D;" d="M298.24,226.052c1.361-6.534,2.677-13.069,4.217-19.564
					c1.548-6.531,3.207-13.035,4.841-19.545c1.287-5.13,2.554-10.265,3.741-15.419c-1.469-0.625-3.034-1.013-4.694-1.069
					c-5.798-0.195-11.056,3.302-15.117,7.114c-1.599,1.501-3.098,3.121-4.494,4.828c-2.62,8.992-6.052,28.502-6.917,32.021
					c-1.018,4.142-2.007,8.305-2.6,12.537c-0.578,4.121-0.865,8.499-0.003,12.604c1.171,5.57,7.45,5.903,11.907,5.114
					c1.901-0.337,3.805-0.88,5.599-1.645C295.824,237.355,297.062,231.71,298.24,226.052z"/>
				<path style="opacity:0.65;fill:#92422B;" d="M319.388,192.672c-0.126-1.192-0.242-2.382-0.428-3.567
					c-0.346-2.205-0.936-4.638-2.353-6.422c-1.186-1.493-2.906-2.342-4.785-1.741c-1.95,0.624-3.52,2.254-4.802,3.78
					c-1.467,1.746-2.737,3.653-3.914,5.603c-1.204,1.995-2.396,4.035-3.283,6.194c-0.634,1.544-1.111,3.194-1.203,4.869
					c-0.095,1.715,0.316,3.328,0.941,4.914c0.556,1.413,1.255,2.809,2.209,3.996c0.381,0.474,0.779,0.935,1.146,1.42
					c0.354,0.469,0.902,1.124,0.92,1.746c0.029,1.059-1.525,2.153-2.212,2.773c-1.124,1.012-2.17,1.985-3.045,3.227
					c-0.964,1.368-1.798,2.861-2.282,4.47c-0.51,1.698-0.567,3.307-0.011,4.999c0.095,0.29,0.574,0.062,0.567-0.184
					c-0.045-1.506,0.057-3.127,0.477-4.579c0.161-0.557,0.379-1.092,0.62-1.615c0.537,0.427,1.408,0.587,2.003,0.593
					c0.95,0.009,1.884-0.311,2.713-0.755c1.793-0.961,3.132-2.405,4.466-3.903c0.135-0.152-0.042-0.321-0.194-0.19
					c-1.309,1.121-2.652,2.313-4.147,3.182c-0.699,0.407-1.497,0.751-2.316,0.779c-0.406,0.014-0.803-0.048-1.184-0.192
					c-0.309-0.117-0.577-0.309-0.871-0.442c0.279-0.502,0.578-0.994,0.904-1.467c0.74-1.074,1.579-1.949,2.556-2.806
					c0.902-0.792,1.852-1.564,2.583-2.525c0.582-0.765,0.901-1.595,0.548-2.534c-0.435-1.158-1.297-2.098-2.031-3.072
					c-0.895-1.186-1.515-2.579-2.023-3.968c-0.581-1.588-0.898-3.135-0.7-4.83c0.33-2.814,1.707-5.377,3.092-7.799
					c0.956-1.67,1.956-3.316,3.059-4.894c1.166-1.668,2.465-3.395,4.114-4.618c1.359-1.008,2.65-1.263,4.044-0.156
					c1.838,1.459,2.46,4.016,2.986,6.182c0.555,2.285,1.003,4.581,1.626,6.849c0.094,0.342,0.689,0.037,0.611-0.268
					C319.534,194.725,319.496,193.693,319.388,192.672z"/>
			</g>
			<g>
				<path style="fill:#EFB291;" d="M90.973,198.966c-1.624-6.494,1.472-13.369,5.224-18.536c3.488-4.804,8.428-9.763,14.73-9.975
					c5.798-0.195,11.056,3.302,15.117,7.114c1.599,1.501,3.098,3.121,4.494,4.828c2.62,8.992,6.052,28.502,6.917,32.021
					c1.018,4.142,2.007,8.305,2.6,12.537c0.578,4.121,0.865,8.499,0.003,12.604c-1.171,5.57-7.45,5.903-11.907,5.114
					c-2.379-0.421-4.768-1.16-6.934-2.264c-2.926-1.49-4.962-4.068-6.506-6.965c-1.592-2.989-2.654-6.224-4.132-9.266
					c-1.745-3.592-4.27-6.683-6.913-9.61c-3.465-3.838-7.329-7.507-10.258-11.829C92.381,202.898,91.478,200.987,90.973,198.966z"/>
				<path style="opacity:0.64;fill:#EB936D;" d="M140.055,226.956c-0.594-4.233-1.582-8.395-2.6-12.537
					c-0.865-3.519-4.297-23.029-6.917-32.021c-1.396-1.708-2.895-3.327-4.494-4.828c-4.061-3.813-9.319-7.309-15.117-7.114
					c-0.76,0.026-1.499,0.122-2.219,0.277c2.65,3.283,4.413,7.275,5.663,11.278c1.755,5.622,2.601,11.486,3.296,17.319
					c0.814,6.83,1.563,13.663,2.63,20.46c1.224,7.793,2.784,15.542,4.938,23.134c0.11,0.389,0.229,0.776,0.343,1.164
					c0.852,0.238,1.713,0.433,2.573,0.585c4.457,0.79,10.737,0.456,11.907-5.114C140.92,235.455,140.633,231.077,140.055,226.956z"
					/>
				<path style="opacity:0.65;fill:#92422B;" d="M97.883,192.672c0.126-1.192,0.242-2.382,0.428-3.567
					c0.346-2.205,0.936-4.638,2.353-6.422c1.186-1.493,2.906-2.342,4.785-1.741c1.949,0.624,3.52,2.254,4.802,3.78
					c1.467,1.746,2.737,3.653,3.914,5.603c1.204,1.995,2.396,4.035,3.283,6.194c0.634,1.544,1.111,3.194,1.203,4.869
					c0.094,1.715-0.316,3.328-0.941,4.914c-0.556,1.413-1.255,2.809-2.208,3.996c-0.381,0.474-0.779,0.935-1.146,1.42
					c-0.354,0.469-0.902,1.124-0.92,1.746c-0.029,1.059,1.524,2.153,2.212,2.773c1.124,1.012,2.17,1.985,3.045,3.227
					c0.964,1.368,1.799,2.861,2.282,4.47c0.51,1.698,0.567,3.307,0.011,4.999c-0.095,0.29-0.574,0.062-0.567-0.184
					c0.045-1.506-0.057-3.127-0.477-4.579c-0.161-0.557-0.379-1.092-0.62-1.615c-0.537,0.427-1.408,0.587-2.003,0.593
					c-0.95,0.009-1.884-0.311-2.713-0.755c-1.793-0.961-3.132-2.405-4.466-3.903c-0.135-0.152,0.042-0.321,0.194-0.19
					c1.309,1.121,2.652,2.313,4.147,3.182c0.699,0.407,1.497,0.751,2.316,0.779c0.406,0.014,0.803-0.048,1.184-0.192
					c0.309-0.117,0.576-0.309,0.871-0.442c-0.279-0.502-0.577-0.994-0.904-1.467c-0.74-1.074-1.579-1.949-2.556-2.806
					c-0.902-0.792-1.852-1.564-2.583-2.525c-0.582-0.765-0.901-1.595-0.548-2.534c0.435-1.158,1.297-2.098,2.031-3.072
					c0.895-1.186,1.515-2.579,2.023-3.968c0.582-1.588,0.898-3.135,0.7-4.83c-0.33-2.814-1.707-5.377-3.092-7.799
					c-0.956-1.67-1.956-3.316-3.059-4.894c-1.167-1.668-2.465-3.395-4.114-4.618c-1.359-1.008-2.65-1.263-4.044-0.156
					c-1.838,1.459-2.46,4.016-2.986,6.182c-0.555,2.285-1.003,4.581-1.626,6.849c-0.094,0.342-0.689,0.037-0.611-0.268
					C97.737,194.725,97.775,193.693,97.883,192.672z"/>
			</g>
			<path style="fill:#EFB291;" d="M297.968,138.783c-4.258-57.262-82.628-68.06-82.628-68.06l-12.878,0.009
				c0,0-78.355,10.902-82.537,68.17c-4.181,57.268,6.099,107.292,13.342,120.549c7.242,13.257,45.242,49.399,53.081,53.01
				c4.023,1.853,17.1,3.605,17.1,3.605c0.38,0,2.563-0.002,5.617-0.118c3.053,0.112,5.596-0.308,5.596-0.308
				c6.062-0.444,13.096-1.351,17.116-3.21c7.834-3.622,45.786-39.815,53.01-53.081C292.012,246.083,302.226,196.045,297.968,138.783
				z"/>
			<path style="opacity:0.64;fill:#EB936D;" d="M219.266,236.615c-4.804-0.92-9.901-1.808-14.755-0.682
				c-1.871,0.434-3.722,0.929-5.618,1.253c-2.168,0.371-4.674,0.769-6.821,0.083c-0.002-0.001-0.004-0.001-0.006-0.002
				c0.975,1.271,2.193,2.358,3.57,3.214c2.653,1.65,5.752,2.533,8.839,2.895c3.302,0.387,6.68,0.216,9.929-0.486
				c3.059-0.661,6.068-1.794,8.64-3.602c0.842-0.592,1.632-1.267,2.333-2.019C223.339,237.474,221.025,236.952,219.266,236.615z"/>
			<path style="opacity:0.28;fill:#EB936D;" d="M232.032,262.24c-6.679-1.014-13.403-1.796-20.159-2.024
				c-3.343-0.113-6.692-0.09-10.032,0.09c-1.689,0.091-3.376,0.223-5.059,0.395c-1.044,0.107-2.1,0.193-3.131,0.398
				c-3.692,0.733-7.257,2.003-10.96,2.705c-1.778,0.337-3.632,0.619-5.445,0.456c-0.085-0.008-0.17-0.02-0.255-0.03
				c0.044,0.038,0.089,0.076,0.134,0.114c5.059,4.365,10.062,9.113,16.337,11.682c5.288,2.165,11.171,2.803,16.845,2.623
				c5.964-0.19,11.955-1.329,17.51-3.528c2.611-1.034,5.141-2.325,7.443-3.938c2.298-1.609,4.378-3.505,6.526-5.302
				c1.167-0.976,2.364-1.928,3.622-2.786c-1.318,0.142-2.645,0.202-3.971,0.182C238.266,263.225,235.159,262.715,232.032,262.24z"/>
			<g>
				<path style="fill:#27282B;" d="M236.673,168.82c8.979-3.374,18.273-4.522,27.518-4.983c6.941-0.346,14.443-0.047,20.713,3.488
					c-0.84-1.6-1.857-3.058-3.061-4.309c-5.371-5.581-12.881-6.846-19.867-6.983c-4.495-0.088-8.994,0.428-13.493,0.742
					c-3.66,0.256-7.347,0.571-10.954,1.564c-2.696,1.792-5.169,4.05-7.324,6.814c-2.412,3.093-4.367,6.625-6.228,10.215
					C228.009,172.62,232.284,170.469,236.673,168.82z"/>
				<g>
					<path style="fill:#FFFFFF;" d="M278.976,180.557c-0.01-0.198-0.089-0.369-0.298-0.424c-3.718-0.985-7.615-1.335-11.44-1.624
						c-3.73-0.281-7.479-0.356-11.212-0.087c-3.779,0.272-7.545,0.877-11.159,2.033c-3.154,1.008-6.278,2.401-8.453,4.994
						c-1.192,1.422-2.152,3.124-3.043,4.747c-0.063,0.114-0.123,0.23-0.185,0.346c-0.156,0.044-0.305,0.134-0.374,0.26
						c-1.001,1.818-1.263,3.836-1.857,5.798c-0.059,0.194-0.036,0.405,0.143,0.53c7.49,5.202,16.773,7.074,25.781,6.43
						c4.133-0.295,8.436-1.073,12.076-3.148c3.181-1.814,5.652-4.731,7.321-7.959C278.159,188.806,279.175,184.669,278.976,180.557z
						"/>
					<g>
						<g>
							<g>
								<g>
									<path style="fill:#92422B;" d="M264.545,178.167c-6.715-0.802-13.884-1.014-20.376,1.17
										c-1.154,1.489-2.016,3.232-2.454,5.176c-1.62,7.196,3.033,14.314,10.393,15.898c7.36,1.584,14.641-2.965,16.261-10.161
										c1.008-4.478-0.414-8.923-3.405-12.026C264.825,178.207,264.685,178.184,264.545,178.167z"/>
									<path style="fill:#1A1716;" d="M257.227,177.68c-0.138-0.03-0.275-0.044-0.412-0.068c-1.362-0.02-2.724,0.011-4.079,0.104
										c-3.689,0.845-6.748,3.67-7.617,7.53c-1.207,5.358,2.258,10.659,7.739,11.838c5.481,1.18,10.902-2.208,12.108-7.566
										C266.173,184.16,262.708,178.859,257.227,177.68z"/>
									<path style="fill:#FFFFFF;" d="M253.341,177.677c-1.799,0.099-3.588,0.305-5.344,0.653
										c-0.425,0.479-0.737,1.066-0.887,1.729c-0.478,2.122,0.895,4.221,3.065,4.689c2.171,0.467,4.318-0.875,4.795-2.997
										C255.331,180.149,254.637,178.561,253.341,177.677z"/>
									<path style="fill:#FFFFFF;" d="M246.657,185.923c-0.141,0.627-0.775,1.023-1.416,0.885
										c-0.641-0.138-1.046-0.758-0.905-1.384c0.141-0.627,0.775-1.023,1.416-0.885
										C246.393,184.676,246.798,185.296,246.657,185.923z"/>
								</g>
							</g>
						</g>
					</g>
					<path style="fill:#501C04;" d="M281.375,180.39c-1.015-0.417-2.099-0.615-3.129-0.987c-1.058-0.382-2.111-0.728-3.193-1.036
						c-2.132-0.607-4.262-1.046-6.456-1.356c-4.045-0.572-8.194-0.932-12.281-0.869c-4.107,0.063-8.274,0.647-12.085,2.24
						c-3.832,1.601-7.119,4.204-9.58,7.547c-1.203,1.633-2.19,3.46-3.067,5.286c-0.849,1.768-1.563,3.706-0.899,5.652
						c0.11,0.324,0.53,0.03,0.572-0.186c0.335-1.73,1.249-3.428,2.11-4.949c0.848-1.499,1.787-2.989,2.798-4.383
						c2.108-2.907,4.873-5.23,8.18-6.641c7.121-3.039,14.879-2.188,22.368-1.521c2.39,0.213,4.772,0.507,7.154,0.805
						c1.206,0.151,2.406,0.316,3.614,0.44c1.215,0.124,2.4,0.441,3.618,0.539C281.375,180.992,281.732,180.537,281.375,180.39z"/>
				</g>
			</g>
			<g>
				<path style="fill:#27282B;" d="M181.204,168.82c-8.98-3.374-18.273-4.522-27.518-4.983c-6.941-0.346-14.443-0.047-20.713,3.488
					c0.84-1.6,1.857-3.058,3.061-4.309c5.371-5.581,12.881-6.846,19.867-6.983c4.495-0.088,8.994,0.428,13.493,0.742
					c3.66,0.256,7.347,0.571,10.954,1.564c2.696,1.792,5.169,4.05,7.325,6.814c2.412,3.093,4.367,6.625,6.228,10.215
					C189.868,172.62,185.593,170.469,181.204,168.82z"/>
				<g>
					<path style="fill:#FFFFFF;" d="M141.602,192.452c1.668,3.228,4.139,6.146,7.321,7.959c3.64,2.075,7.943,2.853,12.076,3.148
						c9.007,0.643,18.291-1.228,25.781-6.43c0.179-0.124,0.202-0.335,0.143-0.53c-0.594-1.962-0.855-3.98-1.857-5.798
						c-0.07-0.126-0.218-0.216-0.374-0.26c-0.062-0.115-0.122-0.232-0.185-0.346c-0.891-1.623-1.851-3.325-3.043-4.747
						c-2.175-2.593-5.299-3.986-8.453-4.994c-3.615-1.156-7.38-1.76-11.16-2.033c-3.733-0.269-7.482-0.194-11.212,0.087
						c-3.826,0.288-7.723,0.639-11.441,1.624c-0.209,0.055-0.288,0.227-0.298,0.424
						C138.702,184.669,139.718,188.806,141.602,192.452z"/>
					<g>
						<g>
							<g>
								<g>
									<path style="fill:#92422B;" d="M153.332,178.167c6.715-0.802,13.884-1.014,20.376,1.17
										c1.155,1.489,2.016,3.232,2.454,5.176c1.62,7.196-3.033,14.314-10.393,15.898c-7.361,1.584-14.641-2.965-16.261-10.161
										c-1.008-4.478,0.415-8.923,3.405-12.026C153.052,178.207,153.192,178.184,153.332,178.167z"/>
									<path style="fill:#1A1716;" d="M160.65,177.68c0.138-0.03,0.275-0.044,0.412-0.068c1.362-0.02,2.724,0.011,4.079,0.104
										c3.689,0.845,6.748,3.67,7.617,7.53c1.206,5.358-2.258,10.659-7.739,11.838c-5.481,1.18-10.902-2.208-12.108-7.566
										C151.704,184.16,155.169,178.859,160.65,177.68z"/>
									<path style="fill:#FFFFFF;" d="M164.536,177.677c1.799,0.099,3.587,0.305,5.344,0.653c0.425,0.479,0.737,1.066,0.887,1.729
										c0.478,2.122-0.895,4.221-3.065,4.689c-2.171,0.467-4.318-0.875-4.795-2.997
										C162.546,180.149,163.24,178.561,164.536,177.677z"/>
									<path style="fill:#FFFFFF;" d="M171.22,185.923c0.141,0.627,0.775,1.023,1.416,0.885c0.641-0.138,1.046-0.758,0.905-1.384
										c-0.141-0.627-0.775-1.023-1.416-0.885C171.484,184.676,171.079,185.296,171.22,185.923z"/>
								</g>
							</g>
						</g>
					</g>
					<path style="fill:#501C04;" d="M136.502,180.39c1.015-0.417,2.099-0.615,3.129-0.987c1.058-0.382,2.111-0.728,3.193-1.036
						c2.132-0.607,4.262-1.046,6.456-1.356c4.045-0.572,8.194-0.932,12.281-0.869c4.107,0.063,8.274,0.647,12.085,2.24
						c3.832,1.601,7.119,4.204,9.58,7.547c1.202,1.633,2.19,3.46,3.066,5.286c0.849,1.768,1.563,3.706,0.899,5.652
						c-0.11,0.324-0.53,0.03-0.572-0.186c-0.335-1.73-1.249-3.428-2.11-4.949c-0.848-1.499-1.787-2.989-2.798-4.383
						c-2.108-2.907-4.873-5.23-8.18-6.641c-7.121-3.039-14.879-2.188-22.368-1.521c-2.39,0.213-4.772,0.507-7.154,0.805
						c-1.206,0.151-2.406,0.316-3.614,0.44c-1.215,0.124-2.4,0.441-3.618,0.539C136.501,180.992,136.145,180.537,136.502,180.39z"/>
				</g>
			</g>
			<path d="M199.194,99.089c0,0,40.773-11.227,76.819,14.182c0,0,10.637-47.864-31.319-45.501
				C202.739,70.134,199.194,99.089,199.194,99.089z"/>
			<path style="fill:#27282B;" d="M348.009,62.735c-2.324,1.844-5.425,1.925-8.277,1.648c-2.963-0.288-5.885-1.057-8.721-1.938
				c-3.593-1.116-6.93-2.874-9.957-5.101c-3.063-2.254-5.741-4.988-8.514-7.58c-5.57-5.206-11.407-10.34-18.366-13.613
				c-6.008-2.825-12.713-4.287-19.36-3.983c-5.394,0.247-10.862,1.604-15.472,4.413c-0.131-0.616-0.291-1.23-0.487-1.839
				c-1.666-5.175-4.994-9.667-8.866-13.416c-7.197-6.968-16.783-10.9-26.581-12.442c-11.93-1.878-24.367-1.441-36.235,0.651
				c-11.708,2.064-23.548,5.394-33.722,11.698c-2.174,1.347-4.282,2.802-6.336,4.337c-2.793,1.525-5.52,3.171-8.165,4.939
				c-6.146,4.11-11.898,8.766-17.667,13.38c-5.351,4.28-10.741,8.556-16.437,12.374c-5.171,3.467-11.326,6.96-17.787,6.277
				c-1.598-0.169-3.162-0.648-4.602-1.354c-0.813-0.398-2.358,0.884-1.408,1.479c2.271,1.422,4.309,3.193,6.631,4.534
				c2.472,1.427,5.201,2.197,8.051,2.333c1.126,0.053,2.252,0.018,3.377-0.081c-1.682,1.05-3.277,2.24-4.818,3.487
				c-4.528,3.664-8.677,7.916-11.647,12.96c-3.165,5.375-4.93,11.672-5.977,17.784c-1.092,6.377-1.204,12.884-0.561,19.314
				c0.661,6.608,2.22,13.343,5.976,18.926c0.573,0.851,1.911-0.14,1.99-0.882c0.44-4.158,1.466-8.261,2.927-12.223
				c-0.042,0.194-0.089,0.386-0.13,0.58c-1.553,7.44-2.302,15.49,0.633,22.689c1.385,3.397,3.374,6.501,5.738,9.298
				c2.532,2.996,5.255,5.819,7.742,8.858c4.837,5.913,9.211,12.234,12.88,18.939c2.118,3.87,4.009,7.87,5.583,11.993
				c1.07,2.802,2.03,5.693,2.687,8.641c0.276,1.762,0.551,3.524,0.812,5.289c0.147,0.997,1.98,0.206,1.915-0.622
				c-0.006-0.07-0.015-0.14-0.021-0.21c0.001,0,0.001,0,0.002-0.001c-0.002-0.014-0.004-0.028-0.006-0.042
				c-0.145-1.72-0.408-3.427-0.761-5.119c-1.312-9.102-2.331-18.337-1.807-27.507c0.293-5.125,1.082-10.236,2.007-15.281
				c0.913-4.985,2.126-9.917,3.66-14.748c0.089-0.279,0.183-0.557,0.274-0.836c2.018-0.919,3.977-1.969,5.865-3.03
				c4.37-2.453,8.524-5.266,12.455-8.373c7.332-5.794,14.167-12.431,20.048-19.715c0.604,2.271,1.45,4.483,2.542,6.601
				c2.688,5.214,6.808,9.543,11.837,12.557c5.518,3.307,11.84,4.84,18.161,5.69c3.493,0.47,7.003,0.58,10.505,0.926
				c2.006,0.199,5.148,0.799,6.653-0.999c0.133-0.159,0.28-0.433,0.125-0.632c-1.072-1.378-2.552-2.31-4.005-3.236
				c-1.593-1.015-3.017-2.112-4.279-3.527c-2.581-2.896-4.395-6.417-5.503-10.121c-2.011-6.726-2.04-14.148,0.014-20.866
				c2.06-6.738,6.253-12.428,12.091-16.371c5.714-3.859,12.891-6.478,19.863-5.67c3.725,0.432,7.696,2.135,9.987,5.207
				c2.183,2.928,2.467,6.618,3.094,10.09c-0.116,0.209-0.04,0.42,0.153,0.458c0.098,0.055,0.245,0.006,0.368-0.087
				c1.79-0.773,3.523-1.717,5.468-2.057c1.891-0.331,3.851-0.16,5.657,0.489c4.092,1.469,6.741,5.363,8.407,9.2
				c3.557,8.192,2.752,17.782-0.875,25.806c-1.053,2.329-2.384,4.544-4.026,6.508c-1.663,1.989-3.633,3.681-5.668,5.277
				c-0.452,0.354-0.687,1.21,0.12,1.257c6.491,0.378,12.775-1.798,17.84-5.837c3.434-2.739,6.259-6.15,8.44-9.941
				c1.132,2.663,2.246,5.332,3.195,8.068c1.053,3.035,1.763,6.18,2.483,9.308c0.738,3.207,1.398,6.428,2.056,9.652
				c0.65,3.184,1.342,6.363,1.909,9.564c0.579,3.272,0.931,6.581,1.149,9.896c0.431,6.558,0.391,13.137,0.66,19.702
				c0.107,2.603,0.07,5.186,0.073,7.79c0.001,1.253,0.041,2.507,0.129,3.757c0.069,0.987,0.108,2.074,0.425,3.017
				c0.292,0.869,1.544,0.133,1.609-0.523c0.179-1.813,0.27-3.612,0.606-5.41c0.35-1.875,0.88-3.704,1.393-5.538
				c0.998-3.566,2.033-7.15,3.194-10.667c1.289-3.906,2.781-7.739,4.22-11.591c1.383-3.701,2.586-7.466,4.069-11.13
				c0.72-1.781,1.474-3.549,2.255-5.305c1.412-2.142,2.877-4.248,4.311-6.342c5.939-8.675,11.963-17.939,14.279-28.342
				c0.108-0.484,0.206-0.969,0.297-1.454c0.201,1.761,0.266,3.514,0.13,5.294c-0.186,2.432-0.572,4.848-0.527,7.293
				c0.021,1.142,1.529,0.693,1.922,0.034c5.836-9.785,9.39-20.819,9.394-32.271c0.001-2.829-0.156-5.681-0.799-8.443
				c-0.618-2.652-1.635-5.179-2.79-7.638c-1.167-2.486-2.457-4.875-4.188-7.019c-0.657-0.815-1.365-1.587-2.103-2.329
				c-0.268-0.363-0.544-0.72-0.827-1.073c0.654-0.093,1.304-0.204,1.948-0.339c2.573-0.537,5.06-1.453,7.313-2.813
				c2.077-1.254,3.769-2.951,5.242-4.862c1.554-2.016,3.316-4.688,3.259-7.344C349.811,62.3,348.646,62.229,348.009,62.735z"/>
			<path style="fill:#191A1C;" d="M167.056,116.887c2.454-4.7,4.963-9.411,6.655-14.453c1.528-4.553,2.258-9.285,1.995-14.058
				c-0.008,0.029-0.015,0.058-0.024,0.086c-1.76,6.031-5.132,11.503-8.988,16.411c-4.047,5.151-8.749,9.786-13.787,13.964
				c-2.38,1.973-4.824,3.858-7.441,5.509c-2.898,1.828-5.92,3.464-9.069,4.816c-3.139,1.348-6.396,2.421-9.743,3.115
				c-1.667,0.346-3.343,0.553-5.03,0.76c-1.66,0.205-3.327,0.243-4.992,0.065c-5.698-0.61-10.75-3.59-16.29-4.849
				c0.694,1.276,1.494,2.492,2.428,3.607c3.76,4.49,9.131,7.042,14.507,9.062c0.312,0.117,0.361,0.587,0,0.684
				c-1.611,0.434-3.281,0.647-4.948,0.678c-5.468,0.101-11.841-1.796-14.788-6.694c0.005,1.466,0.093,2.932,0.249,4.39
				c0.398,3.736,1.22,7.441,2.421,11c1.126,3.338,2.607,6.602,4.678,9.466c0.225,0.311-0.198,0.63-0.485,0.485
				c-3.41-1.724-5.86-4.774-7.527-8.151c-1.574-3.188-2.543-6.649-3.227-10.126c-0.331-1.682-0.591-3.378-0.811-5.078
				c-0.244-1.894-0.479-3.798-0.517-5.709c-0.178-8.851,3.174-17.479,8.392-24.536c-0.153,0.031-0.306,0.063-0.457,0.101
				c-3.927,1.008-7.145,4.113-9.732,7.079c-2.971,3.407-5.467,7.245-7.585,11.232c-0.867,1.631-1.701,3.303-2.358,5.032
				c-0.773,2.035-1.078,4.213-1.086,6.382c0.721,1.655,1.572,3.253,2.589,4.764c0.573,0.851,1.911-0.14,1.99-0.882
				c0.44-4.158,1.466-8.261,2.927-12.223c-0.042,0.194-0.089,0.386-0.13,0.58c-1.553,7.44-2.302,15.49,0.633,22.688
				c1.385,3.398,3.374,6.501,5.738,9.298c2.533,2.996,5.255,5.819,7.742,8.858c4.837,5.913,9.211,12.234,12.88,18.939
				c2.118,3.87,4.009,7.87,5.583,11.993c1.07,2.802,2.03,5.693,2.687,8.641c0.276,1.762,0.551,3.524,0.812,5.289
				c0.147,0.997,1.98,0.206,1.915-0.622c-0.006-0.07-0.015-0.14-0.021-0.21c0.001,0,0.001,0,0.002-0.001
				c-0.002-0.014-0.004-0.028-0.006-0.042c-0.145-1.72-0.408-3.427-0.761-5.119c-1.312-9.102-2.331-18.337-1.807-27.507
				c0.293-5.125,1.082-10.236,2.007-15.281c0.913-4.985,2.126-9.917,3.66-14.748c0.089-0.279,0.183-0.557,0.274-0.836
				c2.018-0.919,3.977-1.969,5.865-3.03c4.37-2.453,8.524-5.266,12.455-8.373c6.383-5.044,12.388-10.728,17.715-16.92
				C165.151,120.559,166.099,118.72,167.056,116.887z"/>
			<path style="fill:#191A1C;" d="M247.815,99.73c0.098,0.055,0.245,0.006,0.368-0.087c1.79-0.773,3.523-1.717,5.468-2.058
				c1.891-0.331,3.851-0.16,5.657,0.489c4.092,1.469,6.741,5.363,8.407,9.2c3.557,8.192,2.752,17.782-0.875,25.806
				c-0.934,2.066-2.088,4.041-3.482,5.832c0.218-0.209,0.436-0.417,0.649-0.632c4.505-4.563,7.697-10.371,9.619-16.46
				c0.91-2.884,1.603-5.903,1.843-8.924c0.186-2.35,0.022-4.732-0.373-7.052c-0.813-4.781-2.588-9.893-6.11-13.372
				c-1.568-1.549-3.533-2.69-5.736-3.001c-2.649-0.374-5.285,0.46-7.598,1.703c-0.278,0.149-0.589-0.096-0.521-0.401
				c0.21-0.937,0.417-1.875,0.619-2.814c1.615-7.478,3.041-15.019,5.398-22.31c2.159-6.679,5.111-13.274,9.387-18.881
				c3.384-4.438,7.642-8.258,12.701-10.683c1.801-0.864,3.68-1.536,5.604-2.017c-4.523-1.431-9.288-2.115-14.025-1.899
				c-5.394,0.247-10.862,1.604-15.472,4.412c-0.131-0.616-0.291-1.23-0.487-1.839c-1.666-5.175-4.994-9.667-8.866-13.416
				c-3.191-3.09-6.853-5.58-10.794-7.532c0.039,0.036,0.08,0.07,0.119,0.105c4.857,4.472,8.201,10.305,9.902,16.664
				c0.942,3.522,1.351,7.12,1.507,10.755c0.164,3.823,0.179,7.661-0.166,11.475c-0.66,7.295-2.707,15.256-8.638,20.087
				c-3.15,2.566-7.03,2.971-10.943,3.203c-4.863,0.289-9.698,1.124-14.321,2.684c-7.953,2.683-15.561,7.636-19.925,14.967
				c-3.924,6.592-4.594,14.421-2.996,21.827c0.887,4.109,2.159,8.102,4.266,11.76c2.082,3.614,4.867,6.768,8.126,9.363
				c1.758,1.4,3.734,2.544,5.775,3.522c-1.395-0.927-2.656-1.938-3.785-3.205c-2.581-2.896-4.395-6.417-5.503-10.121
				c-2.011-6.726-2.04-14.148,0.014-20.866c2.06-6.738,6.253-12.428,12.091-16.372c5.714-3.859,12.891-6.478,19.863-5.669
				c3.725,0.432,7.696,2.135,9.987,5.207c2.183,2.928,2.467,6.618,3.094,10.09C247.546,99.48,247.622,99.691,247.815,99.73z"/>
			<path style="fill:#191A1C;" d="M344.89,66.38c-4.754,2.829-10.268,3.873-15.746,3.278c-5.396-0.586-10.547-2.525-15.366-4.979
				c2.792,3.273,5.599,6.535,8.288,9.894c5.448,6.805,10.587,14.11,13.531,22.385c1.433,4.029,2.289,8.275,2.33,12.559
				c0.044,4.59-0.867,9.132-2.521,13.405c-0.125,0.323-0.568,0.348-0.684,0c-0.715-2.14-1.467-4.268-2.298-6.366
				c-1.378-3.48-2.982-6.877-4.932-10.075c-1.535-2.517-3.283-4.889-5.208-7.114c2.365,4.936,3.43,10.418,3.546,15.872
				c0.123,5.84-0.802,11.706-2.507,17.286c-1.388,4.541-3.34,8.954-5.443,13.207c-2.242,4.534-4.779,8.971-7.881,12.977
				c-2.565,3.313-5.758,6.797-9.874,8.099c-0.192,0.061-0.376-0.071-0.436-0.248c-1.357-3.979-2.058-8.12-2.713-12.26
				c-0.575-3.636-1.149-7.283-2.178-10.824c-0.971-3.343-2.484-6.439-3.978-9.57c-2.472-5.181-5.159-10.678-9.337-14.731
				c0.376,2.669,0.447,5.373,0.162,8.058c-0.329,3.086-1.097,6.045-2.199,8.872c1.549-1.78,2.922-3.712,4.1-5.761
				c1.132,2.663,2.246,5.332,3.195,8.068c1.053,3.035,1.763,6.18,2.483,9.308c0.738,3.206,1.398,6.428,2.056,9.652
				c0.65,3.184,1.342,6.363,1.909,9.564c0.579,3.273,0.931,6.581,1.149,9.896c0.431,6.558,0.391,13.137,0.66,19.702
				c0.107,2.603,0.07,5.186,0.073,7.79c0.001,1.253,0.041,2.507,0.129,3.757c0.069,0.987,0.108,2.074,0.425,3.017
				c0.292,0.869,1.544,0.133,1.609-0.523c0.179-1.814,0.27-3.612,0.606-5.41c0.35-1.875,0.88-3.704,1.393-5.538
				c0.998-3.566,2.033-7.15,3.194-10.667c1.289-3.906,2.781-7.739,4.22-11.591c1.383-3.702,2.586-7.467,4.069-11.13
				c0.72-1.781,1.474-3.549,2.255-5.305c1.412-2.142,2.877-4.248,4.311-6.342c5.939-8.675,11.963-17.939,14.279-28.342
				c0.108-0.484,0.206-0.969,0.297-1.454c0.201,1.761,0.266,3.514,0.13,5.294c-0.186,2.432-0.572,4.848-0.527,7.293
				c0.021,1.142,1.529,0.693,1.922,0.034c5.836-9.784,9.39-20.819,9.394-32.271c0.001-2.829-0.156-5.682-0.799-8.443
				c-0.618-2.652-1.635-5.179-2.789-7.638c-1.167-2.486-2.457-4.874-4.188-7.019c-0.657-0.815-1.365-1.587-2.103-2.329
				c-0.268-0.363-0.544-0.72-0.827-1.074c0.654-0.092,1.304-0.204,1.948-0.339c2.573-0.537,5.06-1.453,7.313-2.813
				c2.077-1.254,3.769-2.951,5.242-4.862c1.554-2.017,3.316-4.688,3.259-7.344c-0.004-0.212-0.065-0.38-0.16-0.51
				C348.202,64.128,346.614,65.354,344.89,66.38z"/>
			<g>
				<path style="opacity:0.65;fill:#92422B;" d="M247.666,261.941c-0.599-0.336-1.666,0.137-2.217,0.36
					c-1.308,0.53-2.568,1.028-3.946,1.426c-0.01,0.003-0.017,0.008-0.026,0.012c-0.13,0.016-0.259,0.036-0.389,0.051
					c-5.769,0.675-11.631,1.004-17.454,1.071c-5.771,0.067-11.545,0.118-17.317,0.079c-2.909-0.02-5.825,0.007-8.731-0.108
					c-2.809-0.111-5.612-0.293-8.415-0.475c-2.685-0.174-5.36-0.415-8.049-0.551c-2-0.101-4.454-0.213-6.032-1.375
					c-0.004,0.003-0.008,0.007-0.012,0.01c-0.521-0.254-1.475,0.31-1.084,0.77c1.21,1.424,3.508,1.687,5.452,1.838
					c2.465,0.192,4.949,0.336,7.418,0.476c6.32,0.358,12.662,0.225,18.992,0.19c6.407-0.036,12.797-0.067,19.199-0.285
					c6.2-0.21,12.513-0.289,18.636-1.186c1.049-0.154,2.138-0.272,3.09-0.695C247.291,263.325,248.505,262.412,247.666,261.941z"/>
				<path style="opacity:0.28;fill:#EB936D;" d="M238.121,262.431c-7.861-0.23-15.342-2.366-23.147-2.954
					c-7.818-0.589-15.487,0.315-23.162,1.488c-2.187,0.334-4.377,0.662-6.557,1.022c-1.863,0.308-3.821,0.877-5.707,0.369
					c-0.051-0.014-0.15,0.061-0.086,0.092c1.303,0.625,2.796,0.52,4.232,0.358c1.817-0.205,3.627-0.493,5.439-0.731
					c3.994-0.523,7.998-1.073,12.019-1.435c7.849-0.706,15.879-0.435,23.661,0.637c4.368,0.602,8.794,1.386,13.244,1.31
					C238.16,262.585,238.264,262.435,238.121,262.431z"/>
				<path style="opacity:0.28;fill:#EB936D;" d="M223.09,275.861c-1.242-0.074-2.516,0.094-3.748,0.226
					c-1.344,0.144-2.682,0.322-4.032,0.431c-2.666,0.215-5.341,0.176-8.013,0.064c-2.568-0.108-5.16-0.275-7.7-0.623
					c-2.427-0.332-4.987-0.748-7.277-1.502c-0.166-0.055-0.441,0.17-0.266,0.283c1.006,0.65,1.966,1.157,3.164,1.548
					c1.136,0.371,2.358,0.598,3.559,0.763c2.567,0.354,5.177,0.541,7.773,0.66c2.737,0.126,5.524,0.139,8.246-0.163
					c1.327-0.147,2.642-0.363,3.956-0.571c1.41-0.223,2.848-0.41,4.236-0.71C223.208,276.219,223.454,275.882,223.09,275.861z"/>
			</g>
			<g>
				<path style="opacity:0.65;fill:#92422B;" d="M207.824,242.774c-0.514-0.158-1.031-0.217-1.562-0.324
					c-0.646-0.13-1.257-0.328-1.882-0.503c-1.298-0.365-2.611-0.676-3.881-1.101c-2.507-0.839-5.152-1.896-6.932-3.53
					c-0.853-0.782-1.382-1.681-1.784-2.636c-0.486-1.153-0.142-2.314,0.385-3.421c0.618-1.299,1.406-2.545,2.063-3.832
					c0.51-1,0.934-2.031,1.342-3.063c-1.787,3.041-3.572,6.081-5.626,8.998c-0.156,0.495-0.258,1-0.266,1.517
					c-0.015,1.053,0.489,2.062,1.267,2.937c1.666,1.874,4.344,3.228,7.07,4.059c1.594,0.486,3.24,0.855,4.918,1.118
					c0.777,0.121,1.577,0.165,2.366,0.212c0.755,0.046,1.478,0.131,2.231,0.063C207.785,243.244,208.24,242.902,207.824,242.774z"/>
				<path style="opacity:0.65;fill:#92422B;" d="M210.594,242.774c0.514-0.158,1.03-0.217,1.562-0.324
					c0.646-0.13,1.257-0.328,1.882-0.503c1.298-0.365,2.611-0.676,3.881-1.101c2.507-0.839,5.152-1.896,6.932-3.53
					c0.853-0.782,1.382-1.681,1.784-2.636c0.486-1.153,0.142-2.314-0.385-3.421c-0.618-1.299-1.406-2.545-2.063-3.832
					c-0.51-1-0.934-2.031-1.342-3.063c1.787,3.041,3.572,6.081,5.626,8.998c0.156,0.495,0.258,1,0.266,1.517
					c0.015,1.053-0.489,2.062-1.267,2.937c-1.666,1.874-4.344,3.228-7.07,4.059c-1.594,0.486-3.24,0.855-4.918,1.118
					c-0.777,0.121-1.577,0.165-2.366,0.212c-0.755,0.046-1.478,0.131-2.231,0.063C210.633,243.244,210.179,242.902,210.594,242.774z
					"/>
			</g>
		</g>
		<g style="opacity:0.26;">
			<path style="fill:#E14A31;" d="M247.635,209.523c-0.021-0.064-0.061-0.114-0.12-0.151c-0.058-0.041-0.122-0.063-0.192-0.067
				c-0.074-0.017-0.149-0.015-0.224,0.005c-0.053,0.017-0.105,0.034-0.158,0.051c-0.11,0.049-0.206,0.116-0.289,0.203
				c-0.034,0.044-0.068,0.087-0.102,0.131c-0.055,0.085-0.087,0.178-0.096,0.279v0.184c-0.009,0.07,0.004,0.134,0.039,0.192
				c0.021,0.064,0.061,0.114,0.12,0.151c0.058,0.041,0.122,0.063,0.192,0.066c0.074,0.017,0.149,0.015,0.224-0.005
				c0.053-0.017,0.105-0.034,0.158-0.051c0.11-0.049,0.206-0.116,0.289-0.203c0.034-0.044,0.068-0.087,0.102-0.131
				c0.055-0.085,0.086-0.178,0.095-0.279v-0.184C247.683,209.645,247.67,209.581,247.635,209.523z"/>
			<path style="fill:#E14A31;" d="M253.694,208.032c-0.588,0-1.138,1.045-0.358,1.045
				C253.924,209.077,254.474,208.032,253.694,208.032z"/>
			<path style="fill:#E14A31;" d="M260.76,207.598c-0.01-0.087-0.027-0.171-0.052-0.254c-0.01-0.032-0.025-0.061-0.04-0.09
				c-0.014-0.087-0.045-0.17-0.124-0.219c-0.114-0.07-0.232-0.069-0.362-0.054c-0.146-0.008-0.295,0.006-0.418,0.073
				c-0.061,0.033-0.115,0.068-0.171,0.102c-0.242,0.112-0.465,0.265-0.642,0.457c-0.326,0.355-0.51,0.808-0.546,1.287
				c-0.009,0.123,0.035,0.239,0.123,0.324c0.095,0.094,0.203,0.122,0.337,0.134c0.193,0.017,0.383,0.007,0.574-0.022
				c0.237-0.036,0.45-0.135,0.654-0.257c0.099-0.059,0.189-0.14,0.271-0.219c0.081-0.078,0.153-0.171,0.211-0.267
				c0.116-0.19,0.183-0.401,0.204-0.622C260.789,207.849,260.773,207.721,260.76,207.598z"/>
			<path style="fill:#E14A31;" d="M270.581,210.107c-0.016-0.076-0.053-0.137-0.112-0.183c-0.048-0.058-0.11-0.096-0.186-0.113
				c-0.019-0.008-0.039-0.015-0.058-0.023c-0.044-0.006-0.088-0.013-0.132-0.019c-0.075-0.003-0.148,0.01-0.217,0.038
				c-0.053,0.012-0.101,0.033-0.146,0.064c-0.075,0.036-0.141,0.086-0.198,0.148l-0.072,0.066c-0.038,0.048-0.075,0.097-0.113,0.145
				c-0.049,0.071-0.079,0.148-0.09,0.231c-0.018,0.049-0.021,0.1-0.01,0.151c-0.004,0.051,0.008,0.097,0.036,0.139
				c0.023,0.071,0.067,0.127,0.133,0.167l0.134,0.062l0.156,0.023c0.09,0.003,0.175-0.012,0.257-0.045
				c0.063-0.014,0.12-0.039,0.173-0.077c0.061-0.027,0.114-0.064,0.16-0.112c0.076-0.057,0.139-0.126,0.188-0.209
				c0.025-0.051,0.049-0.103,0.074-0.154c0.011-0.052,0.021-0.103,0.032-0.155C270.589,210.205,270.585,210.156,270.581,210.107z"/>
			<path style="fill:#E14A31;" d="M273.638,213.632c-0.715,0-1.384,1.271-0.436,1.271
				C273.917,214.903,274.587,213.632,273.638,213.632z"/>
			<path style="fill:#E14A31;" d="M261.679,216.812c-0.01-0.087-0.03-0.174-0.061-0.256c-0.096-0.252-0.237-0.477-0.473-0.624
				c-0.286-0.178-0.622-0.23-0.951-0.172c-0.094,0.017-0.189,0.048-0.281,0.086c-0.31,0.091-0.57,0.296-0.766,0.564
				c-0.192,0.262-0.297,0.589-0.337,0.909c-0.04,0.319,0.022,0.635,0.184,0.913c0.19,0.324,0.533,0.475,0.891,0.515
				c0.191,0.021,0.396-0.004,0.58-0.056c0.401-0.114,0.724-0.35,0.96-0.694c0.154-0.225,0.239-0.505,0.268-0.774
				C261.708,217.087,261.694,216.949,261.679,216.812z"/>
			<path style="fill:#E14A31;" d="M227.991,208.167c-0.002-0.006-0.007-0.01-0.01-0.017c-0.04-0.098-0.052-0.204-0.075-0.306
				c0.036-0.09,0.05-0.186,0.024-0.285c-0.034-0.129-0.124-0.202-0.232-0.242c-0.009-0.022-0.018-0.044-0.027-0.065
				c-0.046-0.11-0.095-0.219-0.145-0.328c-0.055-0.075-0.127-0.125-0.217-0.15c-0.099-0.026-0.198-0.028-0.298-0.005
				c-0.223,0.046-0.437,0.194-0.555,0.389c-0.167,0.276-0.319,0.558-0.436,0.86c-0.067,0.174-0.027,0.392,0.135,0.5
				c0.046,0.031,0.092,0.058,0.142,0.082c0.073,0.035,0.146,0.075,0.226,0.091c0.189,0.04,0.368,0.017,0.547-0.048
				c0.001,0.001,0.002,0.003,0.003,0.004c0.08,0.084,0.131,0.132,0.253,0.15c0.233,0.034,0.481-0.106,0.603-0.304
				C227.982,208.406,228.029,208.271,227.991,208.167z"/>
			<path style="fill:#E14A31;" d="M229.39,202.064c-0.667,0-1.29,1.185-0.406,1.185C229.65,203.249,230.274,202.064,229.39,202.064z
				"/>
			<path style="fill:#E14A31;" d="M234.861,216.542c-0.008-0.058-0.016-0.116-0.023-0.174c-0.016-0.077-0.054-0.139-0.114-0.186
				c-0.049-0.059-0.111-0.098-0.189-0.115c-0.053-0.008-0.106-0.016-0.159-0.023c-0.091-0.003-0.179,0.012-0.262,0.046
				c-0.064,0.014-0.123,0.04-0.176,0.078c-0.091,0.044-0.17,0.104-0.239,0.179c-0.038,0.049-0.077,0.098-0.115,0.148
				c-0.061,0.096-0.097,0.201-0.108,0.314l-0.024,0.189c-0.008,0.107,0.017,0.205,0.077,0.294c0.036,0.036,0.072,0.071,0.109,0.107
				c0.093,0.059,0.195,0.089,0.306,0.089c0.094,0.003,0.185-0.012,0.271-0.048c0.099-0.025,0.19-0.069,0.272-0.132
				c0.087-0.056,0.159-0.127,0.217-0.211c0.063-0.069,0.108-0.149,0.137-0.238C234.878,216.756,234.885,216.65,234.861,216.542z"/>
			<path style="fill:#E14A31;" d="M279.749,211.887c0-0.011-0.01-0.133-0.013-0.145c0-0.001-0.001-0.003-0.001-0.004
				c0-0.002-0.001-0.003-0.002-0.005c0-0.001-0.001-0.002-0.001-0.003c-0.001-0.002-0.056-0.122-0.056-0.123
				c0-0.001,0-0.001-0.001-0.001c-0.002-0.004-0.005-0.008-0.008-0.011c-0.03-0.037-0.067-0.07-0.102-0.102
				c-0.056-0.039-0.117-0.061-0.184-0.064c-0.027-0.006-0.055,0.003-0.082,0.002c-0.01-0.001-0.019-0.003-0.029-0.004
				c-0.021,0.002-0.041,0.004-0.062,0.006c-0.014,0.002-0.028-0.003-0.042,0.001c-0.005,0.001-0.01,0.003-0.014,0.005
				c-0.018,0.002-0.036,0.004-0.055,0.005c-0.007,0.002-0.013,0.004-0.02,0.007c-0.012,0.003-0.024,0.006-0.036,0.007
				c0.007-0.001,0.013-0.001,0.02-0.002c-0.007,0.002-0.014,0.005-0.021,0.007c-0.047,0.007-0.095,0.006-0.14,0.025
				c-0.095,0.024-0.182,0.066-0.261,0.126c-0.05,0.043-0.1,0.086-0.151,0.129c-0.067,0.064-0.117,0.139-0.151,0.224
				c-0.031,0.048-0.048,0.1-0.053,0.156c-0.023,0.074-0.024,0.15-0.003,0.227c0.02,0.044,0.041,0.089,0.061,0.133
				c0.061,0.083,0.141,0.138,0.24,0.165c0.057,0.009,0.114,0.018,0.172,0.025c0.006,0.001,0.011,0.001,0.017,0.002
				c0.01,0.001,0.019,0.001,0.029,0.001c0.004,0,0.009-0.001,0.013-0.001c0.058-0.005,0.119-0.01,0.177-0.018
				c0.002,0,0.005-0.001,0.007-0.001c0.004-0.001,0.008-0.002,0.012-0.002c0.002,0,0.004-0.001,0.005-0.001
				c0.001,0,0.002-0.001,0.003-0.001c0.03-0.009,0.06-0.019,0.091-0.029c0.03-0.01,0.06-0.019,0.09-0.029
				c0.003-0.001,0.172-0.097,0.175-0.098c0.002-0.001,0.151-0.13,0.152-0.131c0.001-0.001,0.114-0.146,0.115-0.148
				c0.001-0.002,0.075-0.156,0.075-0.157c0.001-0.002,0.001-0.003,0.002-0.005c0-0.001,0.001-0.002,0.001-0.003
				c0.002-0.007,0.031-0.148,0.032-0.155c0-0.002,0-0.003,0-0.005C279.749,211.888,279.749,211.888,279.749,211.887z"/>
			<g>
				<path style="fill:#E14A31;" d="M284.196,202.929c-0.025-0.094-0.077-0.169-0.158-0.225c-0.055-0.051-0.108-0.105-0.166-0.153
					c-0.013-0.011-0.026-0.021-0.04-0.03c-0.005-0.003-0.01-0.007-0.016-0.01c-0.032-0.018-0.141-0.059-0.16-0.069
					c-0.095-0.026-0.135-0.02-0.229-0.011c-0.133,0.013-0.096,0.004-0.267,0.067c-0.002,0.001-0.004,0.001-0.006,0.002
					c-0.124,0.056-0.237,0.132-0.331,0.231c-0.043,0.045-0.082,0.094-0.115,0.147c-0.051,0.083-0.106,0.21-0.106,0.311
					c0,0.002,0.013,0.146,0.013,0.148c0.01,0.047,0.033,0.093,0.06,0.132c0.001,0.002,0.003,0.003,0.004,0.004
					c0,0.001,0.001,0.001,0.001,0.002l0-0.001c0.003,0.003,0.007,0.006,0.009,0.009c0.025,0.039,0.056,0.075,0.1,0.101
					c0.045,0.025,0.091,0.046,0.138,0.064c0.004,0.001,0.007,0.002,0.011,0.003c0.009,0.003,0.018,0.006,0.027,0.009
					c0.001,0,0.002,0.001,0.003,0.001c0.025,0.013,0.051,0.025,0.076,0.038c0.01,0.005,0.021,0.01,0.031,0.016
					c0.062,0.044,0.131,0.068,0.205,0.071c0.079,0.018,0.159,0.016,0.239-0.005c0.091-0.017,0.175-0.051,0.251-0.101
					c0.086-0.041,0.161-0.098,0.226-0.17c0.036-0.047,0.073-0.093,0.109-0.14c0.058-0.091,0.092-0.19,0.102-0.298
					C284.204,203.024,284.2,202.976,284.196,202.929z"/>
				<path style="fill:#E14A31;" d="M283.657,202.442c0.008,0.002,0.011,0.001,0.02,0.004
					C283.653,202.438,283.65,202.438,283.657,202.442z"/>
			</g>
			<path style="fill:#E14A31;" d="M277.327,202.188c-0.061-0.077-0.164-0.135-0.265-0.125c-0.07,0.007-0.14,0.014-0.21,0.021
				c-0.039,0.004-0.079,0.007-0.119,0.01c-0.014-0.095-0.051-0.192-0.133-0.242c-0.113-0.07-0.254-0.088-0.383-0.057
				c-0.152,0.037-0.309,0.114-0.412,0.234c-0.096,0.112-0.178,0.22-0.228,0.36c-0.015,0.042-0.025,0.099-0.028,0.144
				c-0.002,0.019,0.003,0.094,0.013,0.136c0.004,0.018,0.03,0.067,0.026,0.059c-0.01-0.021,0.017,0.044,0.027,0.058
				c0.024,0.034,0.069,0.076,0.091,0.092c0.005,0.004,0.01,0.007,0.015,0.01c0.026,0.016,0.081,0.04,0.109,0.051
				c0.004,0.001,0.007,0.003,0.01,0.004c0.052,0.016,0.108,0.022,0.162,0.024c0.05,0.003,0.1-0.008,0.15-0.015
				c0.249,0.002,0.498-0.046,0.743-0.082c0.063-0.012,0.122-0.035,0.175-0.07c0.06-0.029,0.113-0.068,0.158-0.118
				c0.066-0.074,0.116-0.155,0.136-0.253C277.381,202.35,277.38,202.255,277.327,202.188z"/>
			<path style="fill:#E14A31;" d="M274.347,222.928c-0.624,0-1.209,1.11-0.38,1.11C274.591,224.038,275.176,222.928,274.347,222.928
				z"/>
			<path style="fill:#E14A31;" d="M266.96,225.551c-0.576,0-1.115,1.023-0.351,1.023
				C267.185,226.575,267.724,225.551,266.96,225.551z"/>
			<path style="fill:#E14A31;" d="M254.251,222.396c-0.6,0-1.161,1.067-0.365,1.067
				C254.485,223.463,255.047,222.396,254.251,222.396z"/>
			<path style="fill:#E14A31;" d="M258.135,216.82c-0.032-0.032-0.065-0.064-0.097-0.095c-0.083-0.053-0.174-0.08-0.273-0.08
				c-0.053,0.005-0.106,0.01-0.159,0.016c-0.118,0.026-0.226,0.074-0.325,0.144c-0.073,0.061-0.156,0.122-0.217,0.199
				c-0.04,0.05-0.081,0.1-0.117,0.152c-0.005,0.008-0.011,0.016-0.016,0.024c-0.036,0.059-0.063,0.123-0.091,0.185
				c-0.033,0.072-0.045,0.161-0.059,0.236c-0.007,0.038-0.008,0.076-0.006,0.115c-0.009,0.07,0.004,0.134,0.039,0.192
				c0.021,0.064,0.061,0.114,0.12,0.151c0.058,0.041,0.122,0.063,0.192,0.067c0.074,0.016,0.149,0.015,0.224-0.005
				c0.053-0.017,0.105-0.034,0.158-0.051c0.109-0.049,0.206-0.116,0.289-0.203c0.034-0.044,0.068-0.087,0.102-0.131
				c0.046-0.071,0.071-0.148,0.085-0.23c0.021-0.023,0.049-0.039,0.066-0.065c0.056-0.062,0.096-0.132,0.122-0.213
				c0.029-0.07,0.037-0.142,0.024-0.214C258.199,216.943,258.178,216.879,258.135,216.82z"/>
			<path style="fill:#E14A31;" d="M245.249,218.252c-0.023-0.086-0.07-0.154-0.143-0.204c-0.039-0.018-0.078-0.036-0.118-0.055
				c-0.043-0.011-0.086-0.016-0.129-0.018c-0.001-0.048-0.003-0.095-0.027-0.137c-0.019-0.06-0.057-0.106-0.112-0.141
				c-0.038-0.017-0.075-0.035-0.113-0.052c-0.067-0.021-0.135-0.025-0.203-0.012c-0.051,0-0.099,0.01-0.145,0.031
				c-0.079,0.02-0.152,0.055-0.217,0.105l-0.125,0.107c-0.07,0.073-0.123,0.156-0.157,0.251c-0.021,0.096-0.048,0.198-0.048,0.298
				c0,0.065,0.006,0.13,0.016,0.194c0.003,0.02,0.008,0.04,0.016,0.059c0.019,0.047,0.039,0.093,0.063,0.137
				c0.004,0.008,0.009,0.016,0.015,0.024c0.023,0.03,0.086,0.095,0.134,0.122c0.004,0.002,0.007,0.004,0.011,0.006
				c0.042,0.021,0.085,0.042,0.128,0.059c0.009,0.004,0.018,0.007,0.028,0.009c0.031,0.008,0.066,0.011,0.096,0.015
				c0.032,0.005,0.066,0.012,0.1,0.013c0.012,0.001,0.025,0,0.037,0c0.063-0.003,0.126-0.01,0.188-0.019
				c0.031-0.004,0.062-0.011,0.092-0.02c0.083-0.015,0.159-0.046,0.228-0.092c0.078-0.038,0.147-0.089,0.206-0.154
				c0.058-0.056,0.102-0.121,0.131-0.195c0.036-0.062,0.057-0.13,0.06-0.203C245.256,218.338,245.253,218.295,245.249,218.252z"/>
			<path style="fill:#E14A31;" d="M240.916,220.136c-0.023-0.113-0.047-0.225-0.07-0.338c-0.01-0.048-0.033-0.086-0.07-0.115
				c-0.03-0.037-0.069-0.06-0.117-0.071c-0.033-0.005-0.066-0.009-0.098-0.014c-0.056-0.002-0.11,0.007-0.162,0.028
				c-0.039,0.009-0.076,0.025-0.109,0.048c-0.056,0.027-0.105,0.064-0.147,0.111c-0.024,0.03-0.047,0.061-0.071,0.091
				c-0.038,0.059-0.06,0.124-0.066,0.194c-0.024,0.128-0.048,0.256-0.072,0.384c-0.006,0.075,0.012,0.143,0.054,0.205
				c0.025,0.025,0.051,0.05,0.076,0.075c0.065,0.042,0.136,0.062,0.213,0.062c0.066,0.003,0.129-0.009,0.189-0.033
				c0.069-0.018,0.132-0.048,0.19-0.092c0.061-0.039,0.111-0.088,0.151-0.147c0.044-0.048,0.076-0.104,0.096-0.167
				C240.928,220.285,240.933,220.212,240.916,220.136z"/>
			<path style="fill:#E14A31;" d="M237.414,217.187c-0.012-0.056-0.039-0.1-0.082-0.134c-0.035-0.043-0.081-0.07-0.137-0.083
				l-0.158-0.042c-0.087-0.023-0.175-0.025-0.263-0.005c-0.101,0.022-0.194,0.063-0.279,0.123c-0.04,0.034-0.08,0.069-0.12,0.103
				c-0.068,0.07-0.118,0.15-0.15,0.241c-0.025,0.06-0.032,0.122-0.021,0.184c-0.001,0.06,0.016,0.115,0.054,0.165
				c0.1,0.143,0.295,0.172,0.454,0.137l0.187-0.042c0.043-0.014,0.086-0.028,0.128-0.042c0.068-0.028,0.128-0.067,0.18-0.118
				c0.039-0.027,0.071-0.06,0.096-0.1c0.044-0.048,0.076-0.104,0.096-0.166c0.008-0.038,0.016-0.076,0.023-0.114
				C237.421,217.26,237.417,217.223,237.414,217.187z"/>
			<path style="fill:#E14A31;" d="M268.789,228.539c-0.051-0.077-0.118-0.13-0.202-0.158c-0.081-0.047-0.17-0.068-0.266-0.064
				c-0.143,0-0.28,0.029-0.41,0.087c-0.136,0.06-0.269,0.149-0.374,0.258c-0.012,0.008-0.027,0.01-0.039,0.019
				c-0.051,0.044-0.102,0.088-0.153,0.131c-0.039,0.05-0.077,0.099-0.116,0.149c-0.05,0.073-0.081,0.152-0.092,0.238
				c-0.024,0.076-0.025,0.153-0.003,0.231c0.01,0.04,0.019,0.081,0.025,0.122c0.003,0.024,0.005,0.048,0.009,0.071
				c0.001,0.008,0.003,0.015,0.006,0.023c0.001,0.002,0.001,0.004,0.002,0.006c0.011,0.029,0.05,0.116,0.065,0.143
				c0.002,0.003,0.004,0.007,0.006,0.01c0.002,0.003,0.005,0.006,0.007,0.009c0.002,0.002,0.003,0.004,0.005,0.005
				c0.032,0.035,0.079,0.08,0.114,0.112c0.009,0.008,0.018,0.015,0.027,0.022c0.038,0.029,0.078,0.054,0.118,0.081
				c0.205,0.137,0.477,0.106,0.692,0.013c0.132-0.059,0.249-0.14,0.349-0.244c0.091-0.094,0.159-0.203,0.203-0.326
				c0.016-0.049,0.03-0.099,0.047-0.148c0.03-0.083,0.045-0.173,0.06-0.26c0.011-0.065,0.007-0.133,0.009-0.199
				C268.886,228.751,268.857,228.64,268.789,228.539z"/>
			<path style="fill:#E14A31;" d="M284.508,209.257c-0.023-0.057-0.049-0.118-0.079-0.173c-0.005-0.008-0.009-0.016-0.016-0.023
				c-0.041-0.049-0.09-0.093-0.137-0.136c-0.007-0.007-0.014-0.013-0.022-0.019c-0.016-0.012-0.033-0.022-0.051-0.031
				c-0.067-0.034-0.139-0.074-0.214-0.092c-0.08-0.02-0.164-0.031-0.246-0.036c-0.027-0.002-0.055-0.001-0.082,0.002
				c-0.094,0.008-0.192,0.013-0.286,0.034c-0.016,0.004-0.031,0.008-0.047,0.012c-0.008,0.002-0.016,0.005-0.024,0.008
				c-0.048,0.015-0.163,0.048-0.21,0.068c-0.003,0.001-0.005,0.002-0.008,0.004c-0.067,0.038-0.134,0.076-0.201,0.113
				c-0.016,0.011-0.031,0.023-0.046,0.035c-0.007,0.006-0.015,0.012-0.022,0.018c-0.008,0.007-0.026,0.021-0.038,0.032
				c-0.015,0.009-0.032,0.016-0.047,0.025c-0.112,0.07-0.204,0.186-0.278,0.292c-0.044,0.063-0.078,0.136-0.102,0.209
				c-0.018,0.055-0.028,0.115-0.037,0.172c-0.003,0.016-0.004,0.033-0.004,0.049c0.001,0.169,0.039,0.296,0.125,0.442
				c0.024,0.04,0.052,0.077,0.084,0.112c0.059,0.066,0.122,0.131,0.193,0.186c0.082,0.064,0.184,0.11,0.28,0.146
				c0.021,0.008,0.043,0.013,0.065,0.017c0.071,0.013,0.149,0.03,0.223,0.028c0.068-0.002,0.138-0.01,0.206-0.02
				c0.01-0.001,0.02-0.003,0.029-0.005c0.07-0.017,0.141-0.042,0.208-0.067c0.01-0.004,0.02-0.007,0.029-0.011
				c0.008-0.004,0.016-0.008,0.023-0.012c0.069-0.037,0.141-0.073,0.206-0.117c0.008-0.005,0.016-0.011,0.023-0.017
				c0.062-0.049,0.124-0.101,0.181-0.156c0.061-0.059,0.111-0.133,0.16-0.2c0.011-0.016,0.022-0.031,0.031-0.048
				c0.039-0.071,0.076-0.146,0.106-0.222c0.007-0.019,0.013-0.038,0.018-0.057c0.022-0.089,0.05-0.19,0.046-0.285
				C284.543,209.444,284.543,209.342,284.508,209.257z"/>
			<path style="fill:#E14A31;" d="M266.658,204.443l-0.104-0.102c-0.089-0.057-0.186-0.085-0.292-0.085
				c-0.09-0.003-0.176,0.012-0.259,0.045c-0.094,0.024-0.181,0.066-0.26,0.126c-0.083,0.054-0.152,0.121-0.207,0.202
				c-0.06,0.066-0.103,0.142-0.131,0.228c-0.011,0.052-0.022,0.104-0.032,0.156c-0.008,0.102,0.017,0.196,0.073,0.281l0.104,0.102
				c0.089,0.057,0.186,0.085,0.292,0.085c0.09,0.003,0.176-0.012,0.259-0.046c0.095-0.024,0.181-0.066,0.26-0.125
				c0.083-0.054,0.152-0.121,0.207-0.202c0.06-0.066,0.103-0.142,0.131-0.228c0.011-0.052,0.021-0.104,0.032-0.156
				C266.739,204.622,266.715,204.528,266.658,204.443z"/>
			<path style="fill:#E14A31;" d="M237.491,208.526c-0.003-0.023-0.007-0.046-0.014-0.069c-0.02-0.068-0.054-0.135-0.086-0.197
				c-0.01-0.019-0.02-0.037-0.034-0.054c-0.044-0.055-0.097-0.106-0.151-0.15c-0.056-0.045-0.131-0.071-0.195-0.099
				c-0.022-0.009-0.043-0.017-0.066-0.022c-0.078-0.017-0.161-0.031-0.242-0.032c-0.09-0.001-0.181,0.011-0.269,0.025
				c-0.116,0.018-0.222,0.068-0.323,0.125c-0.045,0.025-0.091,0.049-0.135,0.078c-0.034,0.022-0.066,0.047-0.096,0.072
				c-0.05,0.043-0.1,0.086-0.15,0.129c-0.067,0.064-0.117,0.139-0.151,0.224c-0.037,0.077-0.067,0.169-0.07,0.26
				c-0.035,0.06-0.068,0.12-0.096,0.187c-0.031,0.075-0.045,0.158-0.058,0.237c-0.013,0.077-0.002,0.159,0.009,0.235
				c0.006,0.038,0.017,0.074,0.032,0.109c0.032,0.074,0.063,0.152,0.115,0.216c0.069,0.084,0.157,0.174,0.257,0.226
				c0.138,0.071,0.247,0.109,0.405,0.115c0.075,0.003,0.152-0.007,0.225-0.021c0.078-0.014,0.156-0.043,0.229-0.072
				c0.079-0.032,0.154-0.079,0.225-0.124c0.073-0.046,0.137-0.109,0.201-0.166c0.083-0.073,0.149-0.164,0.211-0.255
				c0.061-0.09,0.106-0.193,0.148-0.292c0.021-0.05,0.036-0.101,0.048-0.154c0.022-0.1,0.049-0.205,0.049-0.309
				C237.508,208.674,237.5,208.599,237.491,208.526z"/>
			<path style="fill:#E14A31;" d="M226.337,197.855c-0.012-0.043-0.033-0.08-0.053-0.119c0,0,0-0.001,0-0.001
				c0.009,0.019,0.018,0.039,0.027,0.058c-0.014-0.031-0.019-0.064-0.026-0.096c0.001-0.011-0.001-0.021,0.001-0.032
				c0.007-0.058-0.003-0.112-0.032-0.16c-0.017-0.053-0.051-0.095-0.1-0.126c-0.034-0.016-0.067-0.031-0.101-0.047
				c-0.06-0.018-0.121-0.022-0.182-0.011c-0.045,0-0.089,0.009-0.13,0.028c-0.071,0.018-0.135,0.049-0.194,0.094
				c-0.037,0.032-0.075,0.064-0.112,0.096c-0.063,0.065-0.11,0.14-0.141,0.225c-0.013,0.054-0.025,0.108-0.033,0.163
				c-0.003,0.018-0.005,0.036-0.005,0.055c-0.001,0.017,0,0.034,0.001,0.051c0.004,0.053,0.006,0.107,0.016,0.16
				c0.003,0.016,0.007,0.033,0.012,0.048c0.003,0.008,0.005,0.017,0.008,0.025c0.001,0.004,0.003,0.007,0.004,0.011
				c0.001,0.002,0.001,0.004,0.002,0.006c0.016,0.034,0.031,0.068,0.047,0.102c0.005,0.007,0.011,0.014,0.017,0.02
				c0.031,0.031,0.062,0.063,0.094,0.092c0.014,0.012,0.028,0.023,0.042,0.034c0.033,0.015,0.066,0.031,0.1,0.046
				c0.059,0.018,0.119,0.022,0.179,0.011c0.045,0,0.087-0.009,0.128-0.027c0.07-0.018,0.134-0.049,0.192-0.093l0.111-0.095
				l0.084-0.108c0.036-0.053,0.059-0.11,0.067-0.172c0.017-0.055,0.018-0.11,0.002-0.167
				C226.352,197.902,226.343,197.879,226.337,197.855z"/>
		</g>
		<g style="opacity:0.26;">
			<path style="fill:#E14A31;" d="M169.283,209.523c0.021-0.064,0.061-0.114,0.12-0.151c0.058-0.041,0.122-0.063,0.192-0.067
				c0.074-0.017,0.149-0.015,0.224,0.005c0.053,0.017,0.105,0.034,0.158,0.051c0.109,0.049,0.206,0.116,0.289,0.203
				c0.034,0.044,0.068,0.087,0.102,0.131c0.055,0.085,0.087,0.178,0.096,0.279v0.184c0.009,0.07-0.004,0.134-0.039,0.192
				c-0.021,0.064-0.061,0.114-0.12,0.151c-0.058,0.041-0.122,0.063-0.192,0.066c-0.074,0.017-0.149,0.015-0.224-0.005
				c-0.053-0.017-0.105-0.034-0.158-0.051c-0.109-0.049-0.206-0.116-0.289-0.203c-0.034-0.044-0.068-0.087-0.102-0.131
				c-0.054-0.085-0.086-0.178-0.095-0.279v-0.184C169.235,209.645,169.248,209.581,169.283,209.523z"/>
			<path style="fill:#E14A31;" d="M163.224,208.032c0.588,0,1.138,1.045,0.358,1.045
				C162.994,209.077,162.444,208.032,163.224,208.032z"/>
			<path style="fill:#E14A31;" d="M156.158,207.598c0.009-0.087,0.027-0.171,0.052-0.254c0.01-0.032,0.025-0.061,0.04-0.09
				c0.014-0.087,0.045-0.17,0.124-0.219c0.114-0.07,0.232-0.069,0.362-0.054c0.146-0.008,0.295,0.006,0.418,0.073
				c0.061,0.033,0.115,0.068,0.171,0.102c0.242,0.112,0.465,0.265,0.642,0.457c0.326,0.355,0.51,0.808,0.546,1.287
				c0.009,0.123-0.036,0.239-0.122,0.324c-0.095,0.094-0.204,0.122-0.337,0.134c-0.193,0.017-0.383,0.007-0.574-0.022
				c-0.237-0.036-0.45-0.135-0.654-0.257c-0.099-0.059-0.189-0.14-0.271-0.219c-0.081-0.078-0.153-0.171-0.211-0.267
				c-0.116-0.19-0.184-0.401-0.204-0.622C156.129,207.849,156.145,207.721,156.158,207.598z"/>
			<path style="fill:#E14A31;" d="M146.337,210.107c0.016-0.076,0.053-0.137,0.112-0.183c0.048-0.058,0.11-0.096,0.186-0.113
				c0.019-0.008,0.039-0.015,0.058-0.023c0.044-0.006,0.088-0.013,0.132-0.019c0.075-0.003,0.148,0.01,0.217,0.038
				c0.053,0.012,0.101,0.033,0.146,0.064c0.075,0.036,0.141,0.086,0.198,0.148l0.072,0.066c0.038,0.048,0.075,0.097,0.113,0.145
				c0.049,0.071,0.079,0.148,0.09,0.231c0.018,0.049,0.021,0.1,0.01,0.151c0.004,0.051-0.008,0.097-0.036,0.139
				c-0.023,0.071-0.067,0.127-0.133,0.167l-0.134,0.062l-0.157,0.023c-0.089,0.003-0.175-0.012-0.257-0.045
				c-0.063-0.014-0.12-0.039-0.173-0.077c-0.061-0.027-0.114-0.064-0.16-0.112c-0.076-0.057-0.139-0.126-0.188-0.209
				c-0.025-0.051-0.049-0.103-0.074-0.154c-0.011-0.052-0.021-0.103-0.032-0.155C146.329,210.205,146.333,210.156,146.337,210.107z"
				/>
			<path style="fill:#E14A31;" d="M143.28,213.632c0.715,0,1.384,1.271,0.436,1.271C143.001,214.903,142.331,213.632,143.28,213.632
				z"/>
			<path style="fill:#E14A31;" d="M155.24,216.812c0.01-0.087,0.03-0.174,0.061-0.256c0.097-0.252,0.237-0.477,0.472-0.624
				c0.286-0.178,0.622-0.23,0.951-0.172c0.094,0.017,0.189,0.048,0.281,0.086c0.31,0.091,0.57,0.296,0.766,0.564
				c0.192,0.262,0.297,0.589,0.338,0.909c0.04,0.319-0.022,0.635-0.184,0.913c-0.19,0.324-0.533,0.475-0.891,0.515
				c-0.191,0.021-0.396-0.004-0.58-0.056c-0.401-0.114-0.724-0.35-0.96-0.694c-0.154-0.225-0.239-0.505-0.268-0.774
				C155.21,217.087,155.224,216.949,155.24,216.812z"/>
			<path style="fill:#E14A31;" d="M188.927,208.167c0.002-0.006,0.007-0.01,0.01-0.017c0.039-0.098,0.052-0.204,0.075-0.306
				c-0.036-0.09-0.05-0.186-0.024-0.285c0.034-0.129,0.124-0.202,0.232-0.242c0.009-0.022,0.018-0.044,0.027-0.065
				c0.046-0.11,0.095-0.219,0.145-0.328c0.055-0.075,0.127-0.125,0.217-0.15c0.099-0.026,0.198-0.028,0.298-0.005
				c0.223,0.046,0.437,0.194,0.555,0.389c0.167,0.276,0.319,0.558,0.436,0.86c0.067,0.174,0.027,0.392-0.135,0.5
				c-0.046,0.031-0.092,0.058-0.142,0.082c-0.073,0.035-0.146,0.075-0.226,0.091c-0.189,0.04-0.368,0.017-0.547-0.048
				c-0.001,0.001-0.002,0.003-0.003,0.004c-0.08,0.084-0.131,0.132-0.253,0.15c-0.233,0.034-0.481-0.106-0.603-0.304
				C188.937,208.406,188.889,208.271,188.927,208.167z"/>
			<path style="fill:#E14A31;" d="M187.528,202.064c0.667,0,1.291,1.185,0.406,1.185
				C187.268,203.249,186.644,202.064,187.528,202.064z"/>
			<path style="fill:#E14A31;" d="M182.057,216.542c0.008-0.058,0.016-0.116,0.023-0.174c0.016-0.077,0.054-0.139,0.114-0.186
				c0.049-0.059,0.112-0.098,0.189-0.115c0.053-0.008,0.106-0.016,0.159-0.023c0.091-0.003,0.179,0.012,0.262,0.046
				c0.064,0.014,0.122,0.04,0.176,0.078c0.091,0.044,0.171,0.104,0.239,0.179c0.038,0.049,0.077,0.098,0.115,0.148
				c0.061,0.096,0.097,0.201,0.108,0.314l0.024,0.189c0.008,0.107-0.017,0.205-0.077,0.294c-0.036,0.036-0.072,0.071-0.109,0.107
				c-0.093,0.059-0.195,0.089-0.306,0.089c-0.094,0.003-0.185-0.012-0.271-0.048c-0.099-0.025-0.19-0.069-0.272-0.132
				c-0.087-0.056-0.159-0.127-0.216-0.211c-0.063-0.069-0.108-0.149-0.137-0.238C182.04,216.756,182.033,216.65,182.057,216.542z"/>
			<path style="fill:#E14A31;" d="M137.169,211.887c0-0.011,0.01-0.133,0.012-0.145c0-0.001,0.001-0.003,0.001-0.004
				c0-0.002,0.001-0.003,0.001-0.005c0-0.001,0.001-0.002,0.001-0.003c0.001-0.002,0.056-0.122,0.056-0.123
				c0-0.001,0-0.001,0.001-0.001c0.002-0.004,0.005-0.008,0.008-0.011c0.031-0.037,0.067-0.07,0.102-0.102
				c0.056-0.039,0.117-0.061,0.184-0.064c0.027-0.006,0.055,0.003,0.082,0.002c0.01-0.001,0.019-0.003,0.029-0.004
				c0.021,0.002,0.041,0.004,0.062,0.006c0.014,0.002,0.028-0.003,0.042,0.001c0.005,0.001,0.01,0.003,0.014,0.005
				c0.018,0.002,0.036,0.004,0.055,0.005c0.007,0.002,0.013,0.004,0.02,0.007c0.012,0.003,0.024,0.006,0.036,0.007
				c-0.007-0.001-0.013-0.001-0.02-0.002c0.007,0.002,0.014,0.005,0.021,0.007c0.047,0.007,0.095,0.006,0.14,0.025
				c0.095,0.024,0.182,0.066,0.261,0.126c0.05,0.043,0.1,0.086,0.15,0.129c0.067,0.064,0.117,0.139,0.151,0.224
				c0.031,0.048,0.048,0.1,0.053,0.156c0.023,0.074,0.024,0.15,0.003,0.227c-0.02,0.044-0.04,0.089-0.061,0.133
				c-0.061,0.083-0.141,0.138-0.24,0.165c-0.057,0.009-0.114,0.018-0.172,0.025c-0.005,0.001-0.011,0.001-0.017,0.002
				c-0.01,0.001-0.019,0.001-0.029,0.001c-0.005,0-0.009-0.001-0.013-0.001c-0.058-0.005-0.119-0.01-0.177-0.018
				c-0.002,0-0.005-0.001-0.007-0.001c-0.004-0.001-0.008-0.002-0.012-0.002c-0.002,0-0.004-0.001-0.005-0.001
				c-0.001,0-0.002-0.001-0.003-0.001c-0.03-0.009-0.061-0.019-0.091-0.029c-0.03-0.01-0.06-0.019-0.09-0.029
				c-0.003-0.001-0.172-0.097-0.175-0.098c-0.002-0.001-0.151-0.13-0.152-0.131c-0.001-0.001-0.114-0.146-0.115-0.148
				c-0.001-0.002-0.075-0.156-0.075-0.157c-0.001-0.002-0.001-0.003-0.002-0.005c0-0.001-0.001-0.002-0.001-0.003
				c-0.002-0.007-0.031-0.148-0.032-0.155c0-0.002,0-0.003,0-0.005C137.169,211.888,137.169,211.888,137.169,211.887z"/>
			<g>
				<path style="fill:#E14A31;" d="M132.71,203.071c0.01,0.107,0.044,0.207,0.102,0.298c0.036,0.047,0.073,0.093,0.109,0.14
					c0.065,0.072,0.14,0.128,0.226,0.17c0.076,0.05,0.16,0.084,0.251,0.101c0.08,0.021,0.16,0.023,0.239,0.005
					c0.074-0.003,0.143-0.027,0.205-0.071c0.01-0.005,0.021-0.01,0.031-0.016c0.025-0.013,0.05-0.025,0.076-0.038
					c0.001,0,0.002-0.001,0.003-0.001c0.009-0.003,0.018-0.006,0.027-0.009c0.004-0.001,0.007-0.002,0.011-0.003
					c0.048-0.018,0.094-0.039,0.139-0.064c0.043-0.027,0.074-0.062,0.1-0.101c0.003-0.003,0.007-0.006,0.009-0.009l-0.001,0.001
					c0-0.001,0.001-0.001,0.001-0.002c0.001-0.002,0.003-0.003,0.005-0.004c0.027-0.039,0.051-0.085,0.06-0.132
					c0-0.002,0.013-0.145,0.013-0.148c-0.001-0.101-0.056-0.228-0.106-0.311c-0.033-0.053-0.072-0.102-0.115-0.147
					c-0.094-0.099-0.207-0.175-0.331-0.231c-0.002-0.001-0.004-0.002-0.006-0.002c-0.172-0.063-0.134-0.054-0.267-0.067
					c-0.093-0.009-0.133-0.015-0.229,0.011c-0.02,0.01-0.128,0.051-0.16,0.069c-0.005,0.003-0.011,0.006-0.016,0.01
					c-0.014,0.009-0.027,0.02-0.04,0.03c-0.058,0.048-0.111,0.102-0.166,0.153c-0.08,0.056-0.133,0.131-0.158,0.225
					C132.718,202.976,132.714,203.024,132.71,203.071z"/>
				<path style="fill:#E14A31;" d="M133.261,202.442c-0.008,0.002-0.011,0.001-0.02,0.004
					C133.265,202.438,133.268,202.438,133.261,202.442z"/>
			</g>
			<path style="fill:#E14A31;" d="M139.591,202.188c0.061-0.077,0.164-0.135,0.265-0.125c0.07,0.007,0.14,0.014,0.21,0.021
				c0.039,0.004,0.079,0.007,0.119,0.01c0.013-0.095,0.051-0.192,0.133-0.242c0.113-0.07,0.254-0.088,0.383-0.057
				c0.152,0.037,0.309,0.114,0.412,0.234c0.096,0.112,0.178,0.22,0.228,0.36c0.015,0.042,0.025,0.099,0.028,0.144
				c0.001,0.019-0.003,0.094-0.013,0.136c-0.005,0.018-0.03,0.067-0.026,0.059c0.01-0.021-0.017,0.044-0.027,0.058
				c-0.024,0.034-0.069,0.076-0.091,0.092c-0.005,0.004-0.01,0.007-0.015,0.01c-0.025,0.016-0.081,0.04-0.109,0.051
				c-0.003,0.001-0.007,0.003-0.01,0.004c-0.052,0.016-0.108,0.022-0.162,0.024c-0.05,0.003-0.1-0.008-0.149-0.015
				c-0.248,0.002-0.498-0.046-0.743-0.082c-0.063-0.012-0.122-0.035-0.175-0.07c-0.06-0.029-0.113-0.068-0.158-0.118
				c-0.066-0.074-0.116-0.155-0.136-0.253C139.537,202.35,139.538,202.255,139.591,202.188z"/>
			<path style="fill:#E14A31;" d="M142.571,222.928c0.624,0,1.208,1.11,0.38,1.11C142.327,224.038,141.742,222.928,142.571,222.928z
				"/>
			<path style="fill:#E14A31;" d="M149.958,225.551c0.576,0,1.115,1.023,0.351,1.023
				C149.733,226.575,149.194,225.551,149.958,225.551z"/>
			<path style="fill:#E14A31;" d="M162.667,222.396c0.6,0,1.161,1.067,0.365,1.067C162.433,223.463,161.871,222.396,162.667,222.396
				z"/>
			<path style="fill:#E14A31;" d="M158.783,216.82c0.032-0.032,0.064-0.064,0.097-0.095c0.083-0.053,0.174-0.08,0.273-0.08
				c0.053,0.005,0.106,0.01,0.159,0.016c0.118,0.026,0.226,0.074,0.325,0.144c0.073,0.061,0.156,0.122,0.217,0.199
				c0.04,0.05,0.081,0.1,0.117,0.152c0.005,0.008,0.011,0.016,0.016,0.024c0.036,0.059,0.063,0.123,0.091,0.185
				c0.033,0.072,0.045,0.161,0.059,0.236c0.007,0.038,0.008,0.076,0.006,0.115c0.009,0.07-0.004,0.134-0.039,0.192
				c-0.021,0.064-0.061,0.114-0.12,0.151c-0.058,0.041-0.122,0.063-0.192,0.067c-0.074,0.016-0.149,0.015-0.224-0.005
				c-0.053-0.017-0.105-0.034-0.158-0.051c-0.11-0.049-0.206-0.116-0.289-0.203c-0.034-0.044-0.068-0.087-0.102-0.131
				c-0.045-0.071-0.071-0.148-0.085-0.23c-0.021-0.023-0.049-0.039-0.066-0.065c-0.056-0.062-0.096-0.132-0.122-0.213
				c-0.029-0.07-0.037-0.142-0.024-0.214C158.719,216.943,158.74,216.879,158.783,216.82z"/>
			<path style="fill:#E14A31;" d="M171.669,218.252c0.023-0.086,0.07-0.154,0.143-0.204c0.039-0.018,0.078-0.036,0.117-0.055
				c0.043-0.011,0.086-0.016,0.129-0.018c0.001-0.048,0.003-0.095,0.027-0.137c0.019-0.06,0.057-0.106,0.112-0.141
				c0.038-0.017,0.075-0.035,0.113-0.052c0.067-0.021,0.135-0.025,0.203-0.012c0.051,0,0.099,0.01,0.145,0.031
				c0.079,0.02,0.152,0.055,0.217,0.105l0.125,0.107c0.07,0.073,0.123,0.156,0.157,0.251c0.021,0.096,0.048,0.198,0.048,0.298
				c0,0.065-0.006,0.13-0.016,0.194c-0.003,0.02-0.008,0.04-0.016,0.059c-0.019,0.047-0.039,0.093-0.063,0.137
				c-0.004,0.008-0.009,0.016-0.015,0.024c-0.023,0.03-0.086,0.095-0.134,0.122c-0.004,0.002-0.007,0.004-0.011,0.006
				c-0.042,0.021-0.085,0.042-0.128,0.059c-0.009,0.004-0.018,0.007-0.028,0.009c-0.031,0.008-0.066,0.011-0.096,0.015
				c-0.032,0.005-0.067,0.012-0.1,0.013c-0.012,0.001-0.025,0-0.037,0c-0.063-0.003-0.125-0.01-0.187-0.019
				c-0.031-0.004-0.062-0.011-0.092-0.02c-0.083-0.015-0.159-0.046-0.228-0.092c-0.078-0.038-0.147-0.089-0.206-0.154
				c-0.058-0.056-0.102-0.121-0.131-0.195c-0.037-0.062-0.057-0.13-0.06-0.203C171.662,218.338,171.665,218.295,171.669,218.252z"/>
			<path style="fill:#E14A31;" d="M176.002,220.136c0.023-0.113,0.047-0.225,0.07-0.338c0.01-0.048,0.033-0.086,0.07-0.115
				c0.03-0.037,0.069-0.06,0.117-0.071c0.033-0.005,0.066-0.009,0.098-0.014c0.056-0.002,0.11,0.007,0.162,0.028
				c0.039,0.009,0.076,0.025,0.109,0.048c0.056,0.027,0.105,0.064,0.147,0.111c0.024,0.03,0.047,0.061,0.071,0.091
				c0.038,0.059,0.06,0.124,0.066,0.194c0.024,0.128,0.048,0.256,0.072,0.384c0.006,0.075-0.012,0.143-0.054,0.205
				c-0.025,0.025-0.051,0.05-0.076,0.075c-0.065,0.042-0.136,0.062-0.214,0.062c-0.066,0.003-0.129-0.009-0.189-0.033
				c-0.069-0.018-0.132-0.048-0.19-0.092c-0.061-0.039-0.111-0.088-0.151-0.147c-0.044-0.048-0.076-0.104-0.096-0.167
				C175.99,220.285,175.985,220.212,176.002,220.136z"/>
			<path style="fill:#E14A31;" d="M179.504,217.187c0.012-0.056,0.039-0.1,0.082-0.134c0.035-0.043,0.081-0.07,0.137-0.083
				l0.158-0.042c0.087-0.023,0.175-0.025,0.263-0.005c0.101,0.022,0.194,0.063,0.279,0.123c0.04,0.034,0.08,0.069,0.12,0.103
				c0.068,0.07,0.118,0.15,0.15,0.241c0.025,0.06,0.032,0.122,0.021,0.184c0.001,0.06-0.016,0.115-0.054,0.165
				c-0.1,0.143-0.295,0.172-0.454,0.137l-0.187-0.042c-0.043-0.014-0.086-0.028-0.129-0.042c-0.068-0.028-0.128-0.067-0.18-0.118
				c-0.039-0.027-0.071-0.06-0.096-0.1c-0.044-0.048-0.076-0.104-0.096-0.166c-0.008-0.038-0.016-0.076-0.023-0.114
				C179.497,217.26,179.501,217.223,179.504,217.187z"/>
			<path style="fill:#E14A31;" d="M148.128,228.539c0.051-0.077,0.118-0.13,0.202-0.158c0.081-0.047,0.17-0.068,0.266-0.064
				c0.143,0,0.28,0.029,0.41,0.087c0.136,0.06,0.269,0.149,0.375,0.258c0.012,0.008,0.027,0.01,0.039,0.019
				c0.051,0.044,0.102,0.088,0.153,0.131c0.039,0.05,0.077,0.099,0.116,0.149c0.051,0.073,0.081,0.152,0.092,0.238
				c0.023,0.076,0.025,0.153,0.003,0.231c-0.01,0.04-0.019,0.081-0.025,0.122c-0.003,0.024-0.005,0.048-0.009,0.071
				c-0.001,0.008-0.003,0.015-0.006,0.023c-0.001,0.002-0.002,0.004-0.002,0.006c-0.011,0.029-0.05,0.116-0.065,0.143
				c-0.002,0.003-0.004,0.007-0.006,0.01c-0.002,0.003-0.005,0.006-0.007,0.009c-0.002,0.002-0.003,0.004-0.005,0.005
				c-0.032,0.035-0.079,0.08-0.114,0.112c-0.008,0.008-0.018,0.015-0.027,0.022c-0.038,0.029-0.078,0.054-0.118,0.081
				c-0.205,0.137-0.477,0.106-0.692,0.013c-0.132-0.059-0.249-0.14-0.349-0.244c-0.091-0.094-0.159-0.203-0.203-0.326
				c-0.016-0.049-0.03-0.099-0.047-0.148c-0.03-0.083-0.045-0.173-0.06-0.26c-0.011-0.065-0.007-0.133-0.009-0.199
				C148.032,228.751,148.061,228.64,148.128,228.539z"/>
			<path style="fill:#E14A31;" d="M132.41,209.257c0.023-0.057,0.049-0.118,0.079-0.173c0.005-0.008,0.009-0.016,0.016-0.023
				c0.04-0.049,0.09-0.093,0.137-0.136c0.007-0.007,0.014-0.013,0.021-0.019c0.016-0.012,0.033-0.022,0.051-0.031
				c0.067-0.034,0.139-0.074,0.214-0.092c0.08-0.02,0.164-0.031,0.246-0.036c0.027-0.002,0.055-0.001,0.082,0.002
				c0.094,0.008,0.192,0.013,0.286,0.034c0.016,0.004,0.031,0.008,0.047,0.012c0.008,0.002,0.016,0.005,0.024,0.008
				c0.048,0.015,0.163,0.048,0.21,0.068c0.003,0.001,0.005,0.002,0.008,0.004c0.067,0.038,0.134,0.076,0.201,0.113
				c0.016,0.011,0.031,0.023,0.046,0.035c0.007,0.006,0.015,0.012,0.022,0.018c0.008,0.007,0.025,0.021,0.038,0.032
				c0.015,0.009,0.032,0.016,0.047,0.025c0.112,0.07,0.204,0.186,0.278,0.292c0.044,0.063,0.078,0.136,0.102,0.209
				c0.018,0.055,0.028,0.115,0.037,0.172c0.003,0.016,0.004,0.033,0.004,0.049c-0.001,0.169-0.039,0.296-0.125,0.442
				c-0.024,0.04-0.052,0.077-0.083,0.112c-0.059,0.066-0.122,0.131-0.193,0.186c-0.082,0.064-0.184,0.11-0.28,0.146
				c-0.021,0.008-0.043,0.013-0.065,0.017c-0.071,0.013-0.149,0.03-0.223,0.028c-0.068-0.002-0.139-0.01-0.206-0.02
				c-0.01-0.001-0.02-0.003-0.029-0.005c-0.07-0.017-0.141-0.042-0.209-0.067c-0.01-0.004-0.02-0.007-0.029-0.011
				c-0.008-0.004-0.016-0.008-0.023-0.012c-0.069-0.037-0.141-0.073-0.206-0.117c-0.008-0.005-0.016-0.011-0.023-0.017
				c-0.062-0.049-0.124-0.101-0.181-0.156c-0.061-0.059-0.111-0.133-0.16-0.2c-0.011-0.016-0.022-0.031-0.031-0.048
				c-0.039-0.071-0.076-0.146-0.106-0.222c-0.007-0.019-0.013-0.038-0.018-0.057c-0.022-0.089-0.05-0.19-0.046-0.285
				C132.375,209.444,132.375,209.342,132.41,209.257z"/>
			<path style="fill:#E14A31;" d="M150.26,204.443l0.104-0.102c0.089-0.057,0.186-0.085,0.292-0.085
				c0.09-0.003,0.176,0.012,0.259,0.045c0.094,0.024,0.181,0.066,0.26,0.126c0.083,0.054,0.152,0.121,0.207,0.202
				c0.06,0.066,0.103,0.142,0.131,0.228c0.011,0.052,0.021,0.104,0.032,0.156c0.008,0.102-0.017,0.196-0.073,0.281l-0.104,0.102
				c-0.089,0.057-0.186,0.085-0.292,0.085c-0.09,0.003-0.177-0.012-0.259-0.046c-0.094-0.024-0.181-0.066-0.26-0.125
				c-0.083-0.054-0.152-0.121-0.207-0.202c-0.06-0.066-0.103-0.142-0.131-0.228c-0.011-0.052-0.021-0.104-0.032-0.156
				C150.179,204.622,150.203,204.528,150.26,204.443z"/>
			<path style="fill:#E14A31;" d="M179.427,208.526c0.003-0.023,0.007-0.046,0.014-0.069c0.02-0.068,0.054-0.135,0.086-0.197
				c0.01-0.019,0.02-0.037,0.034-0.054c0.044-0.055,0.097-0.106,0.151-0.15c0.056-0.045,0.132-0.071,0.195-0.099
				c0.022-0.009,0.043-0.017,0.066-0.022c0.078-0.017,0.161-0.031,0.242-0.032c0.09-0.001,0.181,0.011,0.269,0.025
				c0.116,0.018,0.222,0.068,0.323,0.125c0.045,0.025,0.091,0.049,0.135,0.078c0.034,0.022,0.066,0.047,0.096,0.072
				c0.05,0.043,0.1,0.086,0.15,0.129c0.067,0.064,0.117,0.139,0.151,0.224c0.037,0.077,0.067,0.169,0.07,0.26
				c0.035,0.06,0.068,0.12,0.096,0.187c0.031,0.075,0.045,0.158,0.058,0.237c0.013,0.077,0.002,0.159-0.009,0.235
				c-0.006,0.038-0.017,0.074-0.032,0.109c-0.032,0.074-0.063,0.152-0.115,0.216c-0.069,0.084-0.157,0.174-0.256,0.226
				c-0.138,0.071-0.247,0.109-0.405,0.115c-0.075,0.003-0.152-0.007-0.225-0.021c-0.078-0.014-0.156-0.043-0.229-0.072
				c-0.079-0.032-0.154-0.079-0.225-0.124c-0.073-0.046-0.137-0.109-0.201-0.166c-0.083-0.073-0.149-0.164-0.211-0.255
				c-0.061-0.09-0.106-0.193-0.148-0.292c-0.021-0.05-0.036-0.101-0.048-0.154c-0.022-0.1-0.049-0.205-0.049-0.309
				C179.41,208.674,179.418,208.599,179.427,208.526z"/>
			<path style="fill:#E14A31;" d="M190.581,197.855c0.011-0.043,0.033-0.08,0.053-0.119c0,0,0-0.001,0-0.001
				c-0.009,0.019-0.018,0.039-0.027,0.058c0.014-0.031,0.019-0.064,0.026-0.096c-0.001-0.011,0-0.021-0.001-0.032
				c-0.007-0.058,0.003-0.112,0.032-0.16c0.017-0.053,0.051-0.095,0.1-0.126c0.034-0.016,0.067-0.031,0.101-0.047
				c0.06-0.018,0.121-0.022,0.182-0.011c0.045,0,0.088,0.009,0.13,0.028c0.071,0.018,0.136,0.049,0.194,0.094
				c0.037,0.032,0.075,0.064,0.112,0.096c0.063,0.065,0.11,0.14,0.14,0.225c0.013,0.054,0.025,0.108,0.034,0.163
				c0.003,0.018,0.005,0.036,0.005,0.055c0.001,0.017,0,0.034-0.001,0.051c-0.004,0.053-0.006,0.107-0.016,0.16
				c-0.003,0.016-0.007,0.033-0.012,0.048c-0.002,0.008-0.005,0.017-0.008,0.025c-0.001,0.004-0.003,0.007-0.004,0.011
				c-0.001,0.002-0.001,0.004-0.002,0.006c-0.016,0.034-0.031,0.068-0.047,0.102c-0.005,0.007-0.011,0.014-0.017,0.02
				c-0.031,0.031-0.062,0.063-0.094,0.092c-0.013,0.012-0.028,0.023-0.042,0.034c-0.033,0.015-0.066,0.031-0.1,0.046
				c-0.059,0.018-0.119,0.022-0.179,0.011c-0.045,0-0.087-0.009-0.128-0.027c-0.07-0.018-0.134-0.049-0.192-0.093l-0.111-0.095
				l-0.084-0.108c-0.036-0.053-0.059-0.11-0.067-0.172c-0.017-0.055-0.018-0.11-0.002-0.167
				C190.566,197.902,190.575,197.879,190.581,197.855z"/>
		</g>
	</g>
</g>
</svg>
